<?xml version="1.0" encoding="utf-8"?>
<svg version="1.1" xmlns:xlink="http://www.w3.org/1999/xlink" width="334px" height="350px" xmlns="http://www.w3.org/2000/svg">
  <defs>
    <mask fill="white" id="clip14">
      <path d="M 41 1072  C 38.78 1072  37 1070.22  37 1068  L 37 726  C 37 723.78  38.78 722  41 722  L 367 722  C 369.22 722  371 723.78  371 726  L 371 1068  C 371 1070.22  369.22 1072  367 1072  " fill-rule="evenodd" />
    </mask>
  </defs>
  <g transform="matrix(1 0 0 1 -37 -722 )">
    <path d="M 37 722  L 371 722  L 371 1072  L 37 1072  L 37 722  " fill-rule="nonzero" fill="#cccccc" stroke="none" mask="url(#clip14)" />
    <path d="M 60 745  L 348 745  L 348 1049  L 60 1049  L 60 745  " fill-rule="nonzero" fill="#ffffff" stroke="none" mask="url(#clip14)" />
    <path d="M 235.73000000000002 824.6  C 221.702 824.6  210.68 813.578  210.68 799.55  C 210.68 785.5219999999999  221.702 774.5  235.73000000000002 774.5  C 249.75800000000004 774.5  260.78000000000003 785.5219999999999  260.78000000000003 799.55  C 260.78000000000003 813.578  249.75800000000004 824.6  235.73000000000002 824.6  " fill-rule="nonzero" fill="#cccccc" stroke="none" mask="url(#clip14)" />
    <path d="M 69 1041  L 69 883.15  L 136.75 811.4  L 231.6 868.8  L 285.8 854.45  L 340 868.8  L 340 1041  L 69 1041  " fill-rule="nonzero" fill="#169bd5" stroke="none" mask="url(#clip14)" />
  </g>
</svg>