<?xml version="1.0" encoding="UTF-8"?>
<svg version="1.1" xmlns:xlink="http://www.w3.org/1999/xlink" width="73px" height="117px" xmlns="http://www.w3.org/2000/svg">
  <g transform="matrix(1 0 0 1 -20 -269 )">
    <path d="M 72 20.962500000000002  C 72.23157894736843 19.89  71.36710526315788 19.012500000000003  70.31052631578949 19  L 56.574999999999996 19  L 56.574999999999996 12.967500000000006  C 56.574999999999996 11.895000000000003  55.71052631578948 11.017500000000005  54.65394736842105 11.017500000000005  L 48.8907894736842 11.017500000000005  C 48.506578947368425 8.287500000000005  47.25789473684211 5.752500000000006  45.24078947368422 3.802500000000004  C 42.743421052631575 1.3650000000000038  39.57368421052632 0  36.11578947368422 0  C 32.6578947368421 0  29.48815789473684 1.3650000000000038  26.990789473684213 3.802500000000004  C 24.973684210526315 5.752500000000006  23.724999999999998 8.287500000000005  23.340789473684215 11.017500000000005  L 17.577631578947372 11.017500000000005  C 16.521052631578947 11.017500000000005  15.656578947368423 11.895000000000003  15.656578947368423 12.967500000000006  L 15.656578947368423 19  L 1.9210526315789473 19  C 0.8644736842105264 19.012500000000003  0 19.89  0 20.962500000000002  L 0 115.05  C 0 116.12249999999997  0.8644736842105264 117  1.9210526315789473 117  L 70.31052631578949 117  C 71.36710526315788 117  72.23157894736843 116.12249999999997  72 115.05  L 72 20.962500000000002  Z M 25.069736842105268 14.917500000000008  C 26.126315789473683 14.917500000000008  26.990789473684213 14.040000000000006  26.990789473684213 12.967500000000006  C 26.990789473684213 10.530000000000006  27.951315789473686 8.287500000000005  29.680263157894732 6.532500000000005  C 31.409210526315793 4.875000000000004  33.71447368421053 3.900000000000005  36.11578947368422 3.900000000000005  C 38.517105263157895 3.900000000000005  40.82236842105263 4.875000000000004  42.551315789473676 6.532500000000005  C 44.280263157894744 8.287500000000005  45.24078947368422 10.530000000000006  45.24078947368422 12.967500000000006  C 45.24078947368422 14.040000000000006  46.10526315789473 14.917500000000008  47.16184210526316 14.917500000000008  L 52.828947368421055 14.917500000000008  L 52.828947368421055 25  L 20 25  L 20 14.917500000000008  L 25.069736842105268 14.917500000000008  Z M 68 113.1  L 68.38947368421054 113  L 4 113  L 4 23  L 15.560526315789472 23  L 15.560526315789472 26.42250000000001  C 15.560526315789472 27.495  16.425 28.37250000000001  17.48157894736842 29  L 54.65394736842105 29  C 55.71052631578948 28.37250000000001  56.574999999999996 27.495  56.574999999999996 26.42250000000001  L 56.574999999999996 23  L 68 23  L 68 113.1  Z " fill-rule="nonzero" fill="#38598a" stroke="none" transform="matrix(1 0 0 1 20 269 )"/>
  </g>
</svg>