<?xml version="1.0" encoding="utf-8"?>
<svg version="1.1" xmlns:xlink="http://www.w3.org/1999/xlink" width="95px" height="80px" xmlns="http://www.w3.org/2000/svg">
  <defs>
    <path d="M 0 0  L 80 0  L 80 80  L 0 80  Z " fill-rule="evenodd" fill="black" id="path143" />
    <clipPath id="clip144">
      <use xlink:href="#path143" />
    </clipPath>
    <filter x="-50.00%" y="-50.00%" width="200.00%" height="200.00%" filterUnits="objectBoundingBox" id="filter145">
      <feColorMatrix type="matrix" values="1 0 0 0 0  0 1 0 0 0  0 0 1 0 0  0 0 0 1 0  " in="SourceGraphic" />
    </filter>
  </defs>
  <g transform="matrix(1 0 0 1 -326 -1677 )">
    <g transform="matrix(1 0 0 1 333.5 1677 )" clip-path="url(#clip144)" filter="url(#filter145)">
      <path d="M41.5381 6.63847C36.864 11.3488 34.7339 17.5333 35.1169 23.5999C33.0599 23.1463 30.9503 22.9031 28.8252 22.9031C12.9307 22.9031 0 35.7078 0 51.4461C0 67.1844 12.9307 79.9891 28.8252 79.9891C34.7529 79.9891 40.4189 78.2322 45.2559 74.9012C47.5625 76.3562 55.8955 80.8533 62.0029 74.283C62.2285 74.0408 62.3193 73.7029 62.2451 73.3807C62.1719 73.0574 61.9443 72.7928 61.6357 72.6717C61.5498 72.6375 53.0967 69.1785 54.4297 64.7127C55.9756 61.5408 57.1797 57.493 57.4971 54.406C57.5265 54.1884 58.1671 49.3106 57.0679 44.456C63.1685 44.5982 69.1296 42.2712 73.5635 37.8025C77.7666 33.5662 80.0527 27.9627 79.999 22.0242C79.9463 16.0828 77.5586 10.5193 73.2783 6.35722C64.4492 -2.22774 50.2109 -2.10176 41.5381 6.63847ZM55.5107 54.1687C55.21 57.0945 54.0674 60.9148 52.5996 63.9012C52.5781 63.9461 52.5596 63.991 52.5449 64.0379C50.9609 68.9959 56.7148 72.5193 59.4961 73.8963C53.6963 78.5799 46.1699 73.1326 45.834 72.8855C45.4824 72.6258 45.0039 72.6238 44.6523 72.8797C40.0361 76.2225 34.5635 77.9891 28.8252 77.9891C14.0342 77.9891 2 66.0818 2 51.4461C2 36.8103 14.0342 24.9031 28.8252 24.9031C31.0343 24.9031 33.2282 25.1746 35.3516 25.6991C36.0491 30.0271 38.0377 34.2004 41.3604 37.6219C41.499 37.7644 41.6396 37.9051 41.7822 38.0447C42.2969 38.6814 42.4834 39.2625 42.3516 39.8191C42.0547 41.076 40.2637 42.1131 39.5996 42.406C39.2412 42.5623 39.0059 42.9148 39 43.3064C38.9941 43.698 39.2168 44.0574 39.5713 44.2254C41.7119 45.242 43.5977 45.6092 45.2041 45.6092C48.2734 45.6092 50.3271 44.2693 51.207 43.5516C52.4522 43.9144 53.7104 44.155 54.9693 44.3019C56.186 48.9747 55.5223 54.0852 55.5107 54.1687ZM72.1436 36.3943C66.6846 41.8953 58.6807 43.8435 51.2627 41.4773C50.9004 41.3621 50.5 41.4666 50.2354 41.74C50.1055 41.8748 47.3047 44.6863 42.2461 43.1316C43.1084 42.4666 44.0039 41.5125 44.2969 40.2869C44.4941 39.4578 44.4805 38.1687 43.291 36.7303C43.2686 36.7029 43.2441 36.6766 43.2178 36.6512C43.0762 36.5135 42.9355 36.3738 42.7969 36.2303C35.085 28.2889 35.1562 15.91 42.958 8.04667C50.8604 0.0828066 63.8369 -0.0324278 71.8838 7.79081C75.7793 11.5779 77.9512 16.6394 77.999 22.0418C78.0479 27.4432 75.9678 32.5398 72.1436 36.3943Z" fill="#272727" />
      <path d="M66.5508 17.0105H48.5508C47.998 17.0105 47.5508 17.4578 47.5508 18.0105C47.5508 18.5633 47.998 19.0105 48.5508 19.0105H66.5508C67.1035 19.0105 67.5508 18.5633 67.5508 18.0105C67.5508 17.4578 67.1035 17.0105 66.5508 17.0105Z" fill="#272727" />
      <path d="M66.5508 26.575H48.5508C47.998 26.575 47.5508 27.0223 47.5508 27.575C47.5508 28.1277 47.998 28.575 48.5508 28.575H66.5508C67.1035 28.575 67.5508 28.1277 67.5508 27.575C67.5508 27.0223 67.1035 26.575 66.5508 26.575Z" fill="#272727" />
      <path d="M43.1855 58.3572L39.3945 55.8455C38.0937 54.9842 36.3857 54.9383 35.1279 55.6912L31.9101 57.2019C31.7822 57.2791 31.624 57.284 31.4873 57.2127L30.9258 56.9305C28.8594 55.907 25.7363 54.3601 23.4316 49.2732C23.3721 49.1414 23.3779 48.9949 23.4941 48.8006L24.8828 46.0115C25.6631 44.7596 25.6933 43.1853 24.9619 41.9021L22.4414 37.4871C21.376 35.6199 19.0254 34.9021 17.0947 35.8523C14.2988 37.2273 12.8682 39.5047 13.0615 42.2693C13.0244 43.6922 12.9043 65.2986 37.2197 67.3396C37.291 67.3514 37.9307 67.4588 38.792 67.4588C40.3623 67.4588 42.6689 67.1023 43.6094 65.1639L44.4443 63.741C45.5224 61.9031 44.9697 59.5389 43.1855 58.3572ZM42.7197 62.7293L41.8476 64.2205C41.0264 65.91 37.5996 65.3738 37.4765 65.3582C14.3223 63.4109 15.0205 43.158 15.0615 42.2967C15.0635 42.2547 15.0625 42.2117 15.0596 42.1707C14.9062 40.1961 15.8877 38.6746 17.9775 37.6473C18.2724 37.5017 18.5859 37.4334 18.8955 37.4334C19.6211 37.4334 20.3242 37.8123 20.7051 38.4793L23.2246 42.8934C23.5918 43.5369 23.5762 44.326 23.1396 45.035L21.751 47.824C21.3262 48.5047 21.2734 49.3553 21.6094 50.0984C24.2099 55.8348 27.8574 57.6424 30.0381 58.7225L30.5723 58.991C31.3232 59.3777 32.2051 59.3523 32.8437 58.9676L36.0605 57.4568C36.751 57.0516 37.624 57.074 38.29 57.5135L42.082 60.0252C42.9795 60.6199 43.2598 61.8074 42.7197 62.7293Z" fill="#272727" />
    </g>
  </g>
</svg>