<?xml version="1.0" encoding="utf-8"?>
<svg version="1.1" xmlns:xlink="http://www.w3.org/1999/xlink" width="73px" height="117px" xmlns="http://www.w3.org/2000/svg">
  <g transform="matrix(1 0 0 1 -21 -268 )">
    <path d="M 15.656578947368416 12.9675000000002  L 15.656578947368416 19  L 1.9210526315789593 19  C 0.864473684210509 19.012499999999818  0 19.889999999999873  0 20.96250000000009  L 0 115.05000000000018  C 0 116.12249999999995  0.864473684210509 117  1.9210526315789593 117  L 70.3105263157895 117  C 71.3671052631579 117  72.23157894736846 116.12249999999995  72 115.05000000000018  L 72 20.96250000000009  C 72.23157894736846 19.889999999999873  71.3671052631579 19.012499999999818  70.3105263157895 19  L 56.57499999999999 19  L 56.57499999999999 12.9675000000002  C 56.57499999999999 11.894999999999982  55.71052631578948 11.017499999999927  54.65394736842103 11.017499999999927  L 48.8907894736842 11.017499999999927  C 48.50657894736844 8.287499999999909  47.257894736842104 5.752500000000055  45.24078947368423 3.8024999999997817  C 42.74342105263156 1.3649999999997817  39.573684210526324 0  36.11578947368423 0  C 32.65789473684208 0  29.488157894736844 1.3649999999997817  26.99078947368423 3.8024999999997817  C 24.9736842105263 5.752500000000055  23.725000000000023 8.287499999999909  23.340789473684197 11.017499999999927  L 17.577631578947376 11.017499999999927  C 16.521052631578925 11.017499999999927  15.656578947368416 11.894999999999982  15.656578947368416 12.9675000000002  Z M 4 23  L 15.560526315789446 23  L 15.560526315789446 26.422500000000127  C 15.560526315789446 27.49499999999989  16.42500000000001 28.372499999999945  17.481578947368405 29  L 54.65394736842103 29  C 55.71052631578948 28.372499999999945  56.57499999999999 27.49499999999989  56.57499999999999 26.422500000000127  L 56.57499999999999 23  L 68 23  L 68 113  L 4 113  L 4 23  Z M 36.11578947368423 3.900000000000091  C 38.51710526315787 3.900000000000091  40.8223684210526 4.875  42.551315789473676 6.5324999999998  C 44.28026315789475 8.287499999999909  45.24078947368423 10.5300000000002  45.24078947368423 12.9675000000002  C 45.24078947368423 14.039999999999964  46.10526315789474 14.91750000000002  47.16184210526319 14.91750000000002  L 52 14.91750000000002  L 52 25  L 20 25  L 20 14.91750000000002  L 25.06973684210527 14.91750000000002  C 26.126315789473665 14.91750000000002  26.99078947368423 14.039999999999964  26.99078947368423 12.9675000000002  C 26.99078947368423 10.5300000000002  27.95131578947371 8.287499999999909  29.68026315789473 6.5324999999998  C 31.409210526315803 4.875  33.71447368421053 3.900000000000091  36.11578947368423 3.900000000000091  Z M 36.35000000000002 45.77500000000009  C 36.44545454545454 48.55416666666679  37.972727272727305 51.14166666666688  40.359090909090924 52.86666666666679  L 48.4727272727273 58.61666666666679  C 48.75909090909091 58.808333333333394  49.23636363636365 59  49.618181818181824 59  C 50 59  50.381818181818176 58.9041666666667  50.76363636363635 58.61666666666679  L 58.877272727272725 52.770833333333485  C 61.26363636363635 51.04583333333312  62.69545454545454 48.458333333333485  62.79090909090911 45.67916666666679  C 62.79090909090911 45.48750000000018  62.79090909090911 45.39166666666688  62.79090909090911 45.19999999999982  C 62.79090909090911 42.80416666666679  61.93181818181819 40.59999999999991  60.30909090909091 38.875  C 58.39999999999998 37.245833333333394  56.20454545454544 36.28749999999991  53.913636363636385 36.28749999999991  C 52.29090909090911 36.28749999999991  50.76363636363635 36.76666666666688  49.42727272727274 37.629166666666606  C 48.090909090909065 36.76666666666688  46.56363636363636 36.28749999999991  44.94090909090909 36.28749999999991  C 40.168181818181836 36.28749999999991  36.25454545454545 40.3125  36.35000000000002 45.29583333333312  C 36.35000000000002 45.48750000000018  36.35000000000002 45.583333333333485  36.35000000000002 45.77500000000009  Z M 40.26666666666665 13.965000000000146  C 40.26666666666665 10.710000000000036  37.97500000000002 8.085000000000036  35.133333333333326 8.085000000000036  C 32.291666666666686 8.085000000000036  30 10.710000000000036  30 13.965000000000146  C 30 17.2199999999998  32.291666666666686 19.8449999999998  35.133333333333326 19.8449999999998  C 37.97500000000002 19.8449999999998  40.26666666666665 17.2199999999998  40.26666666666665 13.965000000000146  Z M 11.588235294117624 37  C 10.520588235294099 36.75  9.647058823529392 37.59375  9.647058823529392 38.625  C 9.647058823529392 39.65625  10.520588235294099 40.5  11.588235294117624 41  L 28.37941176470588 41  C 29.447058823529403 40.5  30.320588235294107 39.65625  30.320588235294107 38.625  C 30.320588235294107 37.59375  29.447058823529403 36.75  28.37941176470588 37  L 11.588235294117624 37  Z M 9.647058823529392 47  C 9.647058823529392 48.03125  10.520588235294099 48.875  11.588235294117624 49  L 28.37941176470588 49  C 29.447058823529403 48.875  30.320588235294107 48.03125  30.320588235294107 47  C 30.320588235294107 45.96875  29.447058823529403 45.125  28.37941176470588 46  L 11.588235294117624 46  C 10.520588235294099 45.125  9.647058823529392 45.96875  9.647058823529392 47  Z M 11.588235294117624 58  L 28.37941176470588 58  C 29.447058823529403 57.5  30.320588235294107 56.65625  30.320588235294107 55.625  C 30.320588235294107 54.59375  29.447058823529403 53.75  28.37941176470588 54  L 11.588235294117624 54  C 10.520588235294099 53.75  9.647058823529392 54.59375  9.647058823529392 55.625  C 9.647058823529392 56.65625  10.520588235294099 57.5  11.588235294117624 58  Z M 35.84702380952382 107.33823529411757  C 36.69880952380953 107.33823529411757  37.361309523809496 106.74264705882342  37.645238095238085 105.94852941176487  L 43.32380952380953 87  L 60.07559523809522 87  C 61.116666666666674 87.48529411764684  61.968452380952385 86.59191176470586  61.968452380952385 85.5  C 61.968452380952385 84.40808823529414  61.02202380952383 83.51470588235316  59.980952380952374 84  L 41.809523809523796 84  C 40.957738095238085 83.51470588235316  40.29523809523812 84.11029411764684  40.01130952380953 84.90441176470586  L 35.752380952380975 98.80147058823513  L 25.43630952380954 65.05147058823513  C 25.152380952380952 64.25735294117658  24.48988095238093 63.66176470588244  23.638095238095218 63.66176470588244  C 22.786309523809507 63.66176470588244  22.12380952380954 64.25735294117658  21.839880952380952 65.05147058823513  L 16.255952380952408 83.51470588235316  L 11.618452380952363 83.51470588235316  C 10.577380952380963 83.51470588235316  9.725595238095252 84.40808823529414  9.725595238095252 85.5  C 9.725595238095252 86.59191176470586  10.577380952380963 87.48529411764684  11.618452380952363 87.48529411764684  L 17.67559523809524 87.48529411764684  C 18.527380952380952 87.48529411764684  19.189880952380975 86.88970588235316  19.473809523809507 86.09558823529414  L 23.732738095238116 72.19852941176487  L 34.048809523809496 105.94852941176487  C 34.332738095238085 106.74264705882342  34.99523809523811 107.33823529411757  35.84702380952382 107.33823529411757  Z M 42.45909090909089 49.80000000000018  C 41.02727272727271 48.8416666666667  40.168181818181836 47.308333333333394  40.07272727272726 45.67916666666679  C 40.07272727272726 45.583333333333485  40.07272727272726 45.48750000000018  40.07272727272726 45.39166666666688  C 40.07272727272726 42.51666666666688  42.2681818181818 40.2166666666667  44.94090909090909 40.2166666666667  C 46.086363636363615 40.2166666666667  47.231818181818205 40.69583333333321  48.090909090909065 41.46250000000009  C 48.85454545454547 42.13333333333321  50 42.13333333333321  50.668181818181836 41.46250000000009  C 51.5272727272727 40.59999999999991  52.672727272727286 40.2166666666667  53.81818181818181 40.120833333333394  C 55.05909090909091 40.120833333333394  56.30000000000001 40.59999999999991  57.159090909090935 41.558333333333394  C 58.113636363636374 42.51666666666688  58.590909090909065 43.85833333333312  58.590909090909065 45.19999999999982  C 58.78181818181821 45.39166666666688  58.78181818181821 45.48750000000018  58.78181818181821 45.583333333333485  C 58.68636363636364 47.21250000000009  57.827272727272714 48.65000000000009  56.39545454545452 49.70416666666688  L 49.42727272727274 54.7833333333333  L 42.45909090909089 49.80000000000018  Z M 36.60000000000002 14.070000000000164  C 36.60000000000002 15.014999999999873  35.958333333333314 15.75  35.133333333333326 15.75  C 34.30833333333334 15.75  33.666666666666686 15.014999999999873  33.666666666666686 14.070000000000164  C 33.666666666666686 13.125  34.30833333333334 12.389999999999873  35.133333333333326 12.389999999999873  C 35.958333333333314 12.389999999999873  36.60000000000002 13.125  36.60000000000002 14.070000000000164  Z " fill-rule="nonzero" fill="#38598a" stroke="none" transform="matrix(1 0 0 1 21 268 )" />
  </g>
</svg>