<?xml version="1.0" standalone="no"?>
<!DOCTYPE svg PUBLIC "-//W3C//DTD SVG 20010904//EN"
 "http://www.w3.org/TR/2001/REC-SVG-20010904/DTD/svg10.dtd">
<svg version="1.0" xmlns="http://www.w3.org/2000/svg"
 width="1080.000000pt" height="1080.000000pt" viewBox="0 0 1080.000000 1080.000000"
 preserveAspectRatio="xMidYMid meet">

<g transform="translate(0.000000,1080.000000) scale(0.100000,-0.100000)"
fill="#000000" stroke="none">
<path d="M2846 6828 c-3 -13 -10 -70 -16 -128 -6 -58 -15 -139 -20 -180 -11
-79 -25 -240 -40 -450 -4 -69 -11 -150 -14 -180 -4 -30 -11 -129 -16 -220 -15
-245 -27 -396 -46 -580 -9 -91 -19 -195 -23 -232 -3 -36 -9 -70 -13 -74 -4 -3
-27 15 -52 42 l-44 49 -72 0 c-63 0 -74 3 -91 24 -10 13 -19 30 -19 38 0 47
-115 208 -174 244 -38 23 -134 26 -175 4 -66 -33 -147 -156 -177 -265 -10 -39
-50 -87 -94 -111 -22 -13 -39 -28 -37 -33 10 -31 122 -5 173 40 12 11 41 51
66 89 58 91 115 128 159 105 29 -16 84 -102 102 -161 32 -104 103 -153 216
-147 l66 3 42 -86 c65 -136 136 -174 201 -109 49 48 49 49 83 1055 11 322 24
535 37 585 12 50 19 -125 52 -1355 14 -545 19 -624 41 -646 23 -23 47 -24 77
-3 19 13 22 24 22 78 0 115 30 345 55 418 58 172 163 195 505 112 205 -50 295
-6 481 233 94 120 140 162 206 186 60 22 88 21 138 -2 60 -27 119 -93 165
-185 45 -88 80 -138 119 -174 62 -55 -69 -52 2061 -52 1958 0 2214 3 2207 24
-5 16 -325 23 -1527 36 -2808 30 -2596 26 -2645 50 -52 25 -75 55 -135 173
-72 143 -141 209 -252 241 -46 13 -66 14 -105 6 -112 -26 -200 -89 -275 -200
-87 -127 -195 -235 -253 -251 -39 -12 -96 -4 -315 41 -78 16 -178 23 -235 15
-73 -9 -140 -54 -185 -124 l-35 -55 -7 45 c-4 24 -12 161 -17 304 -12 309 -27
618 -41 845 -6 91 -15 253 -21 360 -10 190 -20 330 -35 498 -7 82 -7 82 -35
82 -22 0 -30 -6 -33 -22z"/>
<path d="M4025 4559 c-93 -14 -163 -37 -265 -89 -127 -64 -162 -73 -315 -79
-123 -6 -130 -7 -127 -26 15 -83 14 -99 -8 -142 -19 -37 -22 -56 -18 -108 3
-35 9 -68 12 -74 4 -6 39 -11 85 -11 l78 0 6 42 c8 61 52 118 116 151 44 21
49 27 29 27 -14 0 -45 -7 -68 -15 -23 -8 -74 -15 -112 -15 -63 0 -69 2 -63 18
5 9 10 32 13 49 4 29 10 34 46 44 58 16 217 5 293 -20 105 -34 256 -52 473
-56 113 -1 185 -1 160 1 -280 26 -492 65 -588 109 l-57 26 40 25 c48 29 141
59 232 75 152 26 428 -5 618 -70 78 -27 51 -3 -50 44 -187 88 -361 118 -530
94z"/>
<path d="M4565 4349 c-82 -5 -273 -8 -424 -7 l-274 3 73 -17 c122 -28 313 -38
751 -38 382 0 422 -2 478 -19 107 -33 162 -93 196 -211 l15 -55 -4 68 c-7 129
-81 226 -200 263 -63 20 -387 27 -611 13z"/>
<path d="M4937 4240 c-47 -14 -96 -58 -122 -110 -14 -27 -25 -56 -25 -65 0
-13 -48 -15 -404 -15 l-404 0 -12 29 c-27 67 -85 124 -136 137 l-29 7 32 -27
c41 -35 73 -102 73 -154 l0 -42 475 0 475 0 0 26 c0 93 60 184 138 208 l47 15
-40 -1 c-22 0 -53 -4 -68 -8z"/>
<path d="M3637 4185 c-140 -49 -156 -234 -27 -302 55 -29 105 -29 160 0 134
71 110 266 -38 307 -46 12 -48 12 -95 -5z"/>
<path d="M5025 4189 c-166 -51 -143 -307 29 -326 87 -10 163 42 186 127 22 82
-32 176 -115 199 -46 13 -59 13 -100 0z"/>
</g>
</svg>
