<?xml version="1.0" standalone="no"?>
<!DOCTYPE svg PUBLIC "-//W3C//DTD SVG 20010904//EN"
 "http://www.w3.org/TR/2001/REC-SVG-20010904/DTD/svg10.dtd">
<svg version="1.0" xmlns="http://www.w3.org/2000/svg"
 width="1080.000000pt" height="1080.000000pt" viewBox="0 0 1080.000000 1080.000000"
 preserveAspectRatio="xMidYMid meet">

<g transform="translate(0.000000,1080.000000) scale(0.100000,-0.100000)"
fill="#000000" stroke="none">
<path d="M2836 6813 c-3 -21 -8 -72 -11 -113 -3 -41 -10 -106 -15 -145 -16
-117 -30 -263 -41 -420 -5 -82 -14 -206 -20 -275 -5 -69 -16 -219 -24 -335
-28 -398 -60 -714 -74 -728 -5 -5 -19 6 -31 23 -30 43 -101 74 -146 65 -55
-10 -70 0 -89 58 -30 94 -122 214 -190 247 -72 35 -157 20 -218 -38 -39 -37
-92 -126 -112 -190 -24 -73 -52 -112 -108 -147 -25 -16 -45 -34 -44 -40 2 -5
24 -11 50 -13 78 -5 142 39 203 140 65 106 126 134 176 81 38 -42 56 -74 73
-131 32 -105 119 -166 230 -160 l60 3 42 -86 c49 -101 78 -129 137 -129 51 0
89 34 104 95 11 44 27 346 43 830 15 456 25 646 36 674 7 18 12 -42 17 -210
12 -409 24 -852 36 -1269 6 -223 16 -417 22 -432 20 -53 96 -53 117 1 5 14 12
88 16 164 14 308 66 435 188 458 56 11 202 -5 332 -36 234 -55 305 -25 490
204 113 141 147 174 205 200 58 26 113 26 167 0 57 -27 105 -85 156 -187 48
-96 92 -152 151 -190 l41 -27 2095 4 c1152 2 2099 7 2104 12 5 5 4 14 -2 22
-10 11 -123 15 -639 20 -962 9 -2315 26 -2945 37 -607 10 -596 9 -645 62 -11
12 -45 70 -75 128 -90 177 -188 254 -323 254 -126 0 -219 -62 -338 -223 -83
-114 -138 -174 -191 -208 -46 -29 -96 -29 -271 4 -230 44 -271 48 -328 33 -99
-25 -151 -63 -195 -144 l-16 -31 -7 80 c-4 44 -12 211 -18 370 -6 160 -15 367
-21 460 -6 94 -15 260 -21 370 -11 222 -22 403 -40 668 l-12 177 -38 0 c-35 0
-38 -2 -43 -37z"/>
<path d="M6737 5513 c-12 -12 -7 -60 8 -73 33 -27 81 15 64 58 -6 16 -17 22
-37 22 -16 0 -32 -3 -35 -7z"/>
<path d="M5970 5232 l0 -272 88 0 c148 0 217 33 268 130 29 54 27 230 -3 285
-46 86 -99 113 -248 122 l-105 6 0 -271z m180 197 c89 -20 135 -98 128 -216
-7 -129 -67 -193 -180 -193 l-58 0 0 210 0 210 33 0 c17 0 52 -5 77 -11z"/>
<path d="M6573 5341 c-17 -11 -35 -27 -41 -36 -7 -14 -10 -12 -15 14 -5 25
-11 31 -32 31 l-25 0 0 -195 0 -195 30 0 30 0 0 120 c0 127 8 157 49 194 12
11 38 22 59 25 31 5 37 11 40 34 3 25 0 27 -30 27 -18 0 -47 -9 -65 -19z"/>
<path d="M7385 5341 c-72 -33 -105 -93 -105 -189 0 -86 30 -139 100 -175 61
-32 114 -32 184 -3 34 14 36 17 25 38 -6 13 -13 24 -14 26 -1 1 -15 -4 -31
-13 -35 -18 -90 -19 -124 -2 -29 15 -70 72 -70 98 0 18 10 19 130 19 l130 0 0
53 c-1 130 -109 201 -225 148z m126 -54 c20 -15 39 -51 39 -71 0 -14 -16 -16
-101 -16 -99 0 -100 0 -94 23 4 12 19 34 33 50 20 21 35 27 66 27 23 0 48 -6
57 -13z"/>
<path d="M7823 5341 c-17 -11 -35 -27 -41 -36 -7 -14 -10 -12 -15 14 -5 25
-11 31 -32 31 l-25 0 0 -195 0 -195 30 0 30 0 0 120 c0 127 8 157 49 194 12
11 38 22 59 25 31 5 37 11 40 34 3 25 0 27 -30 27 -18 0 -47 -9 -65 -19z"/>
<path d="M6740 5155 l0 -195 30 0 30 0 0 195 0 195 -30 0 -30 0 0 -195z"/>
<path d="M6880 5348 c0 -2 31 -88 69 -193 l69 -190 40 -3 40 -3 26 73 c14 40
46 127 70 193 l43 120 -24 3 c-14 2 -30 1 -37 -1 -7 -3 -34 -75 -61 -161 -28
-86 -52 -156 -55 -156 -3 0 -28 71 -55 158 l-50 157 -38 3 c-20 2 -37 2 -37 0z"/>
<path d="M4025 4559 c-95 -14 -163 -37 -266 -89 -125 -63 -159 -72 -314 -79
-123 -6 -130 -7 -127 -26 14 -81 13 -96 -8 -141 -19 -37 -22 -57 -18 -109 3
-35 9 -68 12 -74 4 -6 39 -11 85 -11 l78 0 6 42 c8 61 52 118 116 151 44 21
49 27 29 27 -14 0 -45 -7 -68 -15 -23 -8 -74 -15 -112 -15 -63 0 -69 2 -63 18
5 9 10 32 13 50 6 41 25 47 162 47 80 -1 122 -6 175 -23 117 -37 255 -53 480
-57 116 -1 190 -1 165 1 -299 27 -499 64 -598 109 -55 25 -55 26 -33 41 38 27
133 61 213 78 162 33 416 12 619 -53 105 -34 99 -19 -16 34 -187 88 -361 118
-530 94z"/>
<path d="M7170 4411 l0 -109 -37 20 c-48 25 -118 20 -162 -11 -52 -37 -76 -94
-75 -181 0 -87 25 -144 76 -175 42 -24 118 -23 161 4 43 26 47 26 47 0 0 -16
5 -20 28 -17 l27 3 3 288 2 287 -35 0 -35 0 0 -109z m-26 -152 c25 -20 26 -24
26 -119 0 -97 -1 -99 -28 -119 -85 -60 -160 -24 -178 86 -20 124 93 220 180
152z"/>
<path d="M8330 4252 c0 -306 1 -312 71 -312 44 0 52 19 19 47 -19 17 -20 30
-20 275 l0 258 -35 0 -35 0 0 -268z"/>
<path d="M7367 4493 c-15 -14 -7 -63 12 -73 29 -15 39 -13 56 14 22 33 5 66
-34 66 -15 0 -31 -3 -34 -7z"/>
<path d="M5947 4473 c-4 -3 -7 -125 -7 -270 l0 -263 30 0 30 0 1 218 0 217 55
-155 c30 -85 61 -171 68 -190 14 -37 45 -51 63 -28 5 7 36 87 67 178 32 91 61
173 65 183 3 10 4 -82 3 -203 l-4 -220 31 0 31 0 0 270 0 270 -39 0 c-45 0
-38 14 -127 -248 -46 -135 -50 -142 -60 -115 -6 15 -37 103 -69 196 l-57 167
-37 0 c-21 0 -41 -3 -44 -7z"/>
<path d="M4555 4349 c-82 -5 -271 -8 -419 -7 l-269 3 74 -17 c123 -29 301 -38
745 -38 387 0 427 -2 483 -19 107 -33 162 -93 196 -211 l15 -55 -4 68 c-7 129
-81 226 -200 263 -63 20 -396 27 -621 13z"/>
<path d="M6592 4319 c-135 -67 -136 -295 -1 -364 36 -19 139 -19 184 -1 39 17
40 19 24 44 -11 17 -16 17 -48 6 -90 -32 -166 4 -186 89 l-7 27 131 0 131 0 0
59 c0 128 -112 197 -228 140z m143 -64 c14 -13 25 -36 25 -50 l0 -25 -99 0
-100 0 11 30 c24 69 115 94 163 45z"/>
<path d="M7645 4322 c-72 -34 -105 -94 -105 -190 0 -71 31 -137 79 -169 81
-54 270 -6 211 53 -8 8 -23 5 -51 -9 -50 -25 -96 -17 -134 23 -23 24 -30 41
-33 89 -9 128 64 186 185 146 16 -5 24 -2 32 14 10 17 7 23 -15 37 -39 26
-121 29 -169 6z"/>
<path d="M8010 4334 c-83 -27 -105 -49 -76 -73 11 -9 23 -8 51 4 59 24 110 20
134 -11 33 -41 27 -62 -16 -69 -157 -24 -220 -80 -197 -173 19 -76 111 -98
199 -49 l45 26 0 -25 c0 -20 5 -24 30 -24 l30 0 -1 143 c-1 162 -11 202 -59
235 -32 21 -99 29 -140 16z m130 -243 c0 -41 -4 -53 -26 -70 -61 -48 -144 -32
-144 28 0 15 9 36 19 45 21 19 93 44 129 45 20 1 22 -4 22 -48z"/>
<path d="M7370 4135 l0 -195 30 0 30 0 0 195 0 195 -30 0 -30 0 0 -195z"/>
<path d="M4937 4240 c-47 -14 -96 -58 -122 -110 -14 -27 -25 -56 -25 -65 0
-13 -48 -15 -403 -15 l-404 0 -18 41 c-25 54 -85 113 -131 127 l-38 11 36 -29
c45 -38 78 -104 78 -158 l0 -42 475 0 475 0 0 26 c0 93 60 184 138 208 l47 15
-40 -1 c-22 0 -53 -4 -68 -8z"/>
<path d="M3637 4185 c-104 -36 -145 -140 -94 -235 28 -53 90 -90 150 -90 85 0
167 83 167 168 0 73 -54 141 -128 162 -46 12 -48 12 -95 -5z"/>
<path d="M5029 4190 c-96 -29 -145 -138 -105 -234 44 -105 199 -127 275 -41
62 71 61 167 -3 231 -45 45 -109 62 -167 44z"/>
</g>
</svg>
