<svg version="1.1" id="Layer_1" xmlns="http://www.w3.org/2000/svg" xmlns:xlink="http://www.w3.org/1999/xlink" x="0px" y="0px"
	 width="100%" viewBox="0 0 1080 1080" enable-background="new 0 0 1080 1080" xml:space="preserve">
<path fill="#000000" opacity="1.000000" stroke="none" 
	d="
M502.000000,1081.000000 
	C334.685913,1081.000000 167.871841,1081.000000 1.028877,1081.000000 
	C1.028877,721.060791 1.028877,361.121582 1.028877,1.091191 
	C360.897644,1.091191 720.795288,1.091191 1080.846436,1.091191 
	C1080.846436,360.999939 1080.846436,720.999939 1080.846436,1081.000000 
	C888.121094,1081.000000 695.310547,1081.000000 502.000000,1081.000000 
M283.488373,396.006836 
	C244.398773,396.006836 205.309174,396.006836 166.270004,396.006836 
	C166.270004,493.296356 166.270004,590.023254 166.270004,687.140930 
	C219.939819,687.140930 273.339722,687.140930 327.137085,687.140930 
	C327.137085,693.270508 327.137085,699.018982 327.137085,704.741455 
	C398.934174,704.741455 470.330933,704.741455 542.127075,704.741455 
	C542.127075,698.744019 542.127075,692.995789 542.127075,686.890198 
	C666.583618,686.890198 790.640686,686.890198 914.770386,686.890198 
	C914.770386,589.784729 914.770386,493.057953 914.770386,395.998901 
	C912.914368,395.998901 911.284485,395.998901 909.654541,395.998901 
	C705.856506,395.998932 502.058502,395.998566 298.260468,396.004822 
	C296.430298,396.004883 294.600128,396.093872 291.945404,395.997101 
	C289.457550,396.033020 286.969727,396.068939 283.488373,396.006836 
z"/>
<path fill="#FFFEFE" opacity="1.000000" stroke="none" 
	d="
M292.769958,396.141357 
	C294.600128,396.093872 296.430298,396.004883 298.260468,396.004822 
	C502.058502,395.998566 705.856506,395.998932 909.654541,395.998901 
	C911.284485,395.998901 912.914368,395.998901 914.770386,395.998901 
	C914.770386,493.057953 914.770386,589.784729 914.770386,686.890198 
	C790.640686,686.890198 666.583618,686.890198 542.127075,686.890198 
	C542.127075,692.995789 542.127075,698.744019 542.127075,704.741455 
	C470.330933,704.741455 398.934174,704.741455 327.137085,704.741455 
	C327.137085,699.018982 327.137085,693.270508 327.137085,687.140930 
	C273.339722,687.140930 219.939819,687.140930 166.270004,687.140930 
	C166.270004,590.023254 166.270004,493.296356 166.270004,396.006836 
	C205.309174,396.006836 244.398773,396.006836 284.031128,396.505676 
	C278.657196,465.172180 272.740479,533.339844 266.823761,601.507507 
	C266.338806,601.667114 265.853851,601.826660 265.368896,601.986267 
	C260.888245,593.658447 254.088409,591.082336 245.188538,592.434998 
	C243.737488,592.655457 240.708054,589.936157 240.269684,588.125122 
	C238.003235,578.761353 232.133957,571.801025 225.712723,565.276428 
	C217.828568,557.265320 205.373245,557.422424 198.389130,566.204041 
	C193.726913,572.066162 190.025757,578.919006 187.044220,585.824890 
	C184.304321,592.171082 181.470123,597.828613 174.759659,600.657715 
	C173.617508,601.139221 172.665588,602.072021 171.625793,602.796326 
	C171.607666,603.270081 171.589554,603.743835 171.571442,604.217529 
	C173.797195,604.604553 176.061462,605.470032 178.241913,605.294373 
	C186.947800,604.593384 192.684128,599.581787 197.122589,592.301758 
	C199.561554,588.301270 202.679626,584.496643 206.222870,581.455933 
	C209.115662,578.973450 212.909302,579.255676 215.220612,583.064575 
	C217.601334,586.987915 220.346237,590.845642 221.856537,595.112671 
	C226.365784,607.852478 233.628387,612.941772 247.169785,611.526917 
	C250.507385,611.178223 252.005829,612.317932 253.176514,615.192322 
	C254.741226,619.034241 256.567657,622.782898 258.492126,626.461548 
	C260.923950,631.109863 264.830475,633.815247 270.154114,633.629700 
	C275.394775,633.447144 277.924194,629.744629 279.918091,625.130737 
	C280.469788,622.301147 280.733276,619.650574 281.010864,616.573303 
	C281.121796,614.164795 281.218628,612.182983 281.654724,610.020508 
	C282.097046,605.439880 282.200104,601.039856 282.349731,596.199829 
	C282.546570,589.173035 282.696838,582.586243 283.111237,575.721313 
	C283.287109,572.962036 283.198853,570.480896 283.112122,567.641968 
	C283.141632,566.569031 283.169617,565.853943 283.553711,564.989014 
	C283.966248,558.892761 284.022675,552.946350 284.085541,546.531860 
	C284.248138,539.804382 284.404297,533.545105 284.858215,527.052185 
	C285.247375,520.435669 285.338806,514.052795 285.476685,507.241089 
	C285.621643,503.874634 285.720154,500.936981 286.072632,497.767517 
	C286.203522,496.024017 286.080444,494.512329 285.966187,492.578308 
	C286.020630,490.467072 286.066223,488.778198 286.445007,487.094360 
	C287.552246,488.065308 288.326263,489.031219 289.110504,490.465759 
	C289.295746,498.507935 289.470734,506.081482 289.438843,514.111755 
	C289.229828,520.326050 289.134186,526.086121 289.290131,531.839355 
	C289.330048,533.311401 290.165558,534.761902 290.662231,536.675293 
	C290.792603,543.418884 290.896271,549.709412 290.746338,556.321533 
	C290.819794,563.082520 291.146851,569.521851 291.459595,576.332886 
	C291.488159,577.693420 291.531036,578.682251 291.360931,580.125000 
	C291.546631,586.488220 291.945282,592.397644 292.384857,598.751709 
	C292.567841,607.132629 292.709900,615.068726 292.595184,623.325073 
	C292.312622,630.059937 292.214508,636.475952 292.330994,642.888000 
	C292.350830,643.979309 293.290558,645.054016 293.827332,646.564087 
	C293.895477,648.994507 293.941589,650.997253 293.750854,653.247803 
	C293.707062,654.996460 293.900085,656.497314 294.102783,658.408325 
	C294.228851,660.446960 294.345276,662.075317 294.357239,664.023438 
	C294.805084,664.920776 295.357330,665.498413 296.095917,666.322388 
	C297.153595,667.090271 298.024963,667.611694 298.975128,668.452515 
	C300.414886,668.576050 301.775818,668.380249 303.456177,668.058960 
	C305.039978,666.384888 306.304382,664.836304 307.864258,663.048950 
	C308.242218,658.427917 308.324677,654.045593 308.449768,649.328247 
	C308.506348,648.318481 308.520294,647.643677 308.863922,646.771912 
	C309.117096,644.383362 309.040588,642.191833 308.987366,639.585632 
	C309.118683,637.517151 309.226654,635.863220 309.664917,634.036621 
	C310.132996,632.129822 310.270782,630.395813 310.478333,628.269775 
	C310.748260,626.289185 310.948425,624.700684 311.442413,623.046631 
	C311.877563,621.988586 312.018951,620.995911 312.205536,619.711792 
	C312.329376,619.035156 312.408051,618.649963 312.760864,618.106689 
	C313.181000,617.190063 313.326996,616.431396 313.599579,615.371826 
	C313.913055,614.445251 314.099945,613.819580 314.594177,613.093750 
	C315.148285,612.245239 315.395081,611.497009 315.793335,610.442749 
	C319.836090,603.877319 325.536957,600.731445 332.789307,601.727783 
	C344.792267,603.376831 356.787933,605.233948 368.660400,607.629272 
	C378.133423,609.540710 386.727173,608.306580 393.882812,601.878906 
	C399.552216,596.786255 404.580658,590.951843 409.659088,585.238159 
	C413.851929,580.520813 417.272339,575.053772 421.786163,570.697205 
	C433.519226,559.372681 446.786591,560.652466 456.191071,573.925110 
	C459.429291,578.495300 461.721954,583.742371 464.378052,588.716797 
	C470.622925,600.412048 479.706665,606.745422 493.604309,606.568298 
	C533.095276,606.064819 572.593262,606.102112 612.088623,605.961121 
	C706.584900,605.623779 801.081116,605.306091 895.577393,604.981445 
	C897.525513,604.974731 899.473633,604.980652 901.439636,604.980652 
	C902.191711,599.193848 898.371948,600.271484 895.656067,600.236511 
	C825.836609,599.337097 756.016479,598.483582 686.196533,597.621155 
	C621.207092,596.818298 556.217957,595.978027 491.227448,595.274597 
	C485.567505,595.213318 481.123383,593.149170 477.811615,588.877136 
	C475.696167,586.148254 474.387482,582.810059 472.494965,579.889099 
	C468.092773,573.094482 464.360962,565.625000 458.875946,559.831665 
	C451.549133,552.093079 442.007202,548.803467 431.070526,552.052063 
	C420.315979,555.246582 412.820862,562.430908 406.285126,571.187805 
	C401.026489,578.233643 395.245728,584.910095 389.419373,591.505432 
	C384.837433,596.692200 378.793060,598.018982 372.099152,596.750488 
	C361.642700,594.769104 351.209839,592.646912 340.719055,590.867004 
	C326.459656,588.447571 314.147278,591.162842 306.357666,604.846313 
	C306.073059,605.346252 305.496002,605.679749 304.608734,606.507385 
	C304.377106,605.222717 304.156555,604.479187 304.120087,603.726746 
	C303.370117,588.250183 302.662018,572.771606 301.903748,557.295471 
	C300.256836,523.682495 298.722656,490.063202 296.874542,456.461182 
	C295.767883,436.340210 294.155212,416.247040 292.769958,396.141357 
M384.834381,659.223694 
	C383.990143,659.223694 383.145874,659.223694 381.513153,659.223694 
	C382.906342,659.924194 383.568573,660.257202 384.679260,661.114929 
	C390.385162,666.420349 392.934631,672.994934 391.979797,680.737671 
	C423.977142,680.737671 455.383179,680.737671 485.585175,680.737671 
	C487.530457,674.983459 488.253967,669.103027 491.298401,664.906067 
	C494.252258,660.834045 499.589325,658.490723 504.869904,654.672302 
	C499.424652,656.353821 494.441406,657.244873 490.075836,659.391968 
	C483.461975,662.644836 481.533936,669.563843 479.301514,676.000183 
	C465.774292,676.000183 452.452240,676.000122 439.130188,676.000122 
	C425.840576,676.000122 412.550964,676.000183 399.496887,676.000183 
	C396.046814,669.054993 393.066101,662.250671 384.834381,659.223694 
M463.194824,639.702637 
	C464.019989,639.748596 464.845123,639.794556 466.679413,639.896790 
	C465.089020,639.063782 464.432922,638.720154 463.282318,637.852356 
	C459.066559,635.886169 454.892090,633.825134 450.628082,631.969788 
	C429.925385,622.961792 408.781677,621.338501 387.404022,629.116394 
	C380.742279,631.540161 374.646942,635.476379 368.121918,638.330688 
	C358.514191,642.533508 348.245758,642.122803 338.049591,642.029724 
	C336.042389,642.011353 334.031647,642.384460 331.466553,642.630310 
	C334.768982,648.976562 334.108124,653.846985 331.588135,659.694885 
	C329.601135,664.305908 331.067688,670.456848 331.300232,675.911072 
	C331.331543,676.645447 333.091736,677.857483 334.095551,677.904602 
	C338.692108,678.119934 343.304413,677.999207 347.782654,677.999207 
	C348.255615,666.285583 354.478516,659.754333 364.528015,656.185913 
	C355.804962,657.371948 347.081940,658.558044 338.154022,659.771973 
	C338.964905,655.881836 339.323944,653.337708 340.079712,650.917542 
	C340.404785,649.876465 341.514404,648.349304 342.332336,648.307434 
	C349.691132,647.930664 357.116211,647.226440 364.416962,647.848816 
	C370.307495,648.350830 375.989349,650.940674 381.878021,651.910095 
	C390.429718,653.318054 399.059998,654.612122 407.701019,655.022888 
	C418.775146,655.549438 429.893250,655.150818 437.643768,655.150818 
	C417.901489,653.405029 394.585571,652.503662 372.355072,641.906738 
	C375.449951,640.111145 377.638489,638.536865 380.055084,637.487976 
	C398.006165,629.696472 416.731934,629.440369 435.588318,632.609619 
	C444.803375,634.158386 453.819794,636.889099 463.194824,639.702637 
M495.966461,689.448059 
	C503.164948,696.505676 510.558441,696.407532 517.330200,692.809998 
	C523.696045,689.428101 526.872925,680.953857 524.959351,673.450317 
	C522.743652,664.762329 513.314392,660.315430 506.241119,661.464783 
	C493.109772,663.598572 487.632874,678.584961 495.966461,689.448059 
M376.400513,662.888306 
	C372.667023,662.598816 368.717102,661.395325 365.246765,662.217102 
	C358.756653,663.753845 354.572083,668.578674 353.184479,675.087280 
	C351.911896,681.056396 353.959412,686.705688 358.399963,690.583496 
	C363.562408,695.091736 369.930847,696.678223 376.662659,693.727051 
	C383.009827,690.944519 386.438385,685.875549 386.946198,679.078125 
	C387.509766,671.534180 383.630157,666.427795 376.400513,662.888306 
M449.154114,646.975586 
	C428.927582,646.975586 408.701019,646.975586 388.474487,646.975586 
	C401.515839,649.182251 414.699219,651.496033 427.930054,651.810364 
	C454.727509,652.447021 481.554932,651.726440 508.361084,652.141846 
	C518.380676,652.297119 527.842346,655.432800 533.232483,664.932556 
	C535.778809,669.420471 537.171875,674.562866 538.961792,679.090942 
	C539.536987,667.953308 536.571838,658.021484 526.503601,651.018616 
	C519.433655,646.101013 511.175873,645.317871 503.187347,645.187195 
	C486.271057,644.910339 469.337555,645.665955 452.412079,646.042053 
	C451.628265,646.059448 450.853943,646.503906 449.154114,646.975586 
z"/>
<path fill="#DA3D3D" opacity="1.000000" stroke="none" 
	d="
M289.645721,513.655029 
	C289.470734,506.081482 289.295746,498.507935 289.334106,490.156372 
	C289.547424,481.313171 289.547424,473.248016 289.547424,465.182861 
	C288.796265,465.157990 288.045105,465.133148 287.293945,465.108276 
	C286.899902,472.435303 286.505829,479.762329 286.111786,487.089355 
	C286.066223,488.778198 286.020630,490.467072 285.743347,492.831238 
	C285.614014,495.004150 285.716339,496.501770 285.818665,497.999359 
	C285.720154,500.936981 285.621643,503.874634 285.172058,507.466675 
	C284.734131,514.509338 284.647278,520.897583 284.560486,527.285828 
	C284.404297,533.545105 284.248138,539.804382 283.800262,546.832886 
	C283.404907,553.447632 283.301270,559.293274 283.197632,565.138855 
	C283.169617,565.853943 283.141632,566.569031 282.845459,567.912598 
	C282.667236,571.027161 282.757172,573.513367 282.847107,575.999512 
	C282.696838,582.586243 282.546570,589.173035 282.065247,596.445923 
	C281.594635,601.488464 281.455048,605.844849 281.315491,610.201172 
	C281.218628,612.182983 281.121796,614.164795 280.763611,616.860474 
	C280.211487,620.152771 279.920685,622.731323 279.629883,625.309814 
	C277.924194,629.744629 275.394775,633.447144 270.154114,633.629700 
	C264.830475,633.815247 260.923950,631.109863 258.492126,626.461548 
	C256.567657,622.782898 254.741226,619.034241 253.176514,615.192322 
	C252.005829,612.317932 250.507385,611.178223 247.169785,611.526917 
	C233.628387,612.941772 226.365784,607.852478 221.856537,595.112671 
	C220.346237,590.845642 217.601334,586.987915 215.220612,583.064575 
	C212.909302,579.255676 209.115662,578.973450 206.222870,581.455933 
	C202.679626,584.496643 199.561554,588.301270 197.122589,592.301758 
	C192.684128,599.581787 186.947800,604.593384 178.241913,605.294373 
	C176.061462,605.470032 173.797195,604.604553 171.571442,604.217529 
	C171.589554,603.743835 171.607666,603.270081 171.625793,602.796326 
	C172.665588,602.072021 173.617508,601.139221 174.759659,600.657715 
	C181.470123,597.828613 184.304321,592.171082 187.044220,585.824890 
	C190.025757,578.919006 193.726913,572.066162 198.389130,566.204041 
	C205.373245,557.422424 217.828568,557.265320 225.712723,565.276428 
	C232.133957,571.801025 238.003235,578.761353 240.269684,588.125122 
	C240.708054,589.936157 243.737488,592.655457 245.188538,592.434998 
	C254.088409,591.082336 260.888245,593.658447 265.368896,601.986267 
	C265.853851,601.826660 266.338806,601.667114 266.823761,601.507507 
	C272.740479,533.339844 278.657196,465.172180 284.527893,396.554688 
	C286.969727,396.068939 289.457550,396.033020 292.357666,396.069244 
	C294.155212,416.247040 295.767883,436.340210 296.874542,456.461182 
	C298.722656,490.063202 300.256836,523.682495 301.903748,557.295471 
	C302.662018,572.771606 303.370117,588.250183 304.120087,603.726746 
	C304.156555,604.479187 304.377106,605.222717 304.608734,606.507385 
	C305.496002,605.679749 306.073059,605.346252 306.357666,604.846313 
	C314.147278,591.162842 326.459656,588.447571 340.719055,590.867004 
	C351.209839,592.646912 361.642700,594.769104 372.099152,596.750488 
	C378.793060,598.018982 384.837433,596.692200 389.419373,591.505432 
	C395.245728,584.910095 401.026489,578.233643 406.285126,571.187805 
	C412.820862,562.430908 420.315979,555.246582 431.070526,552.052063 
	C442.007202,548.803467 451.549133,552.093079 458.875946,559.831665 
	C464.360962,565.625000 468.092773,573.094482 472.494965,579.889099 
	C474.387482,582.810059 475.696167,586.148254 477.811615,588.877136 
	C481.123383,593.149170 485.567505,595.213318 491.227448,595.274597 
	C556.217957,595.978027 621.207092,596.818298 686.196533,597.621155 
	C756.016479,598.483582 825.836609,599.337097 895.656067,600.236511 
	C898.371948,600.271484 902.191711,599.193848 901.439636,604.980652 
	C899.473633,604.980652 897.525513,604.974731 895.577393,604.981445 
	C801.081116,605.306091 706.584900,605.623779 612.088623,605.961121 
	C572.593262,606.102112 533.095276,606.064819 493.604309,606.568298 
	C479.706665,606.745422 470.622925,600.412048 464.378052,588.716797 
	C461.721954,583.742371 459.429291,578.495300 456.191071,573.925110 
	C446.786591,560.652466 433.519226,559.372681 421.786163,570.697205 
	C417.272339,575.053772 413.851929,580.520813 409.659088,585.238159 
	C404.580658,590.951843 399.552216,596.786255 393.882812,601.878906 
	C386.727173,608.306580 378.133423,609.540710 368.660400,607.629272 
	C356.787933,605.233948 344.792267,603.376831 332.789307,601.727783 
	C325.536957,600.731445 319.836090,603.877319 315.500916,610.563049 
	C314.800293,611.724182 314.543549,612.459045 314.286804,613.193909 
	C314.099945,613.819580 313.913055,614.445251 313.311066,615.505615 
	C312.759521,616.715088 312.623138,617.489929 312.486725,618.264771 
	C312.408051,618.649963 312.329376,619.035156 311.908783,619.910645 
	C311.427429,621.304688 311.288025,622.208374 311.148621,623.112122 
	C310.948425,624.700684 310.748260,626.289185 310.177551,628.473511 
	C309.649567,630.782654 309.492126,632.496033 309.334656,634.209351 
	C309.226654,635.863220 309.118683,637.517151 308.729187,639.849976 
	C308.476562,642.675537 308.505432,644.822205 308.534271,646.968872 
	C308.520294,647.643677 308.506348,648.318481 308.151062,649.557007 
	C307.729401,654.509705 307.649078,658.898682 307.568787,663.287659 
	C306.304382,664.836304 305.039978,666.384888 303.038757,667.963623 
	C301.166748,668.040222 300.031525,668.086670 298.896332,668.133118 
	C298.024963,667.611694 297.153595,667.090271 296.123352,666.015564 
	C295.463501,664.876099 294.962585,664.289917 294.461700,663.703674 
	C294.345276,662.075317 294.228851,660.446960 294.311584,658.145020 
	C294.336365,655.980957 294.162018,654.490479 293.987671,653.000000 
	C293.941589,650.997253 293.895477,648.994507 293.968811,646.102295 
	C293.676147,637.810120 293.264069,630.407532 292.851959,623.004883 
	C292.709900,615.068726 292.567841,607.132629 292.575623,598.293701 
	C292.341644,591.484314 291.957794,585.577698 291.573914,579.671082 
	C291.531036,578.682251 291.488159,577.693420 291.694336,576.001343 
	C291.628906,568.865356 291.314423,562.432678 290.999939,556.000000 
	C290.896271,549.709412 290.792603,543.418884 290.815979,536.211121 
	C290.943207,531.867310 291.111450,528.430237 290.898712,525.016907 
	C290.661957,521.218323 290.078339,517.441406 289.645721,513.655029 
z"/>
<path fill="#252022" opacity="1.000000" stroke="none" 
	d="
M462.926117,639.084839 
	C453.819794,636.889099 444.803375,634.158386 435.588318,632.609619 
	C416.731934,629.440369 398.006165,629.696472 380.055084,637.487976 
	C377.638489,638.536865 375.449951,640.111145 372.355072,641.906738 
	C394.585571,652.503662 417.901489,653.405029 437.643768,655.150818 
	C429.893250,655.150818 418.775146,655.549438 407.701019,655.022888 
	C399.059998,654.612122 390.429718,653.318054 381.878021,651.910095 
	C375.989349,650.940674 370.307495,648.350830 364.416962,647.848816 
	C357.116211,647.226440 349.691132,647.930664 342.332336,648.307434 
	C341.514404,648.349304 340.404785,649.876465 340.079712,650.917542 
	C339.323944,653.337708 338.964905,655.881836 338.154022,659.771973 
	C347.081940,658.558044 355.804962,657.371948 364.528015,656.185913 
	C354.478516,659.754333 348.255615,666.285583 347.782654,677.999207 
	C343.304413,677.999207 338.692108,678.119934 334.095551,677.904602 
	C333.091736,677.857483 331.331543,676.645447 331.300232,675.911072 
	C331.067688,670.456848 329.601135,664.305908 331.588135,659.694885 
	C334.108124,653.846985 334.768982,648.976562 331.466553,642.630310 
	C334.031647,642.384460 336.042389,642.011353 338.049591,642.029724 
	C348.245758,642.122803 358.514191,642.533508 368.121918,638.330688 
	C374.646942,635.476379 380.742279,631.540161 387.404022,629.116394 
	C408.781677,621.338501 429.925385,622.961792 450.628082,631.969788 
	C454.892090,633.825134 459.066559,635.886169 463.309174,638.282227 
	C463.199402,638.836365 463.062744,638.960632 462.926117,639.084839 
z"/>
<path fill="#242022" opacity="1.000000" stroke="none" 
	d="
M495.688904,689.189270 
	C487.632874,678.584961 493.109772,663.598572 506.241119,661.464783 
	C513.314392,660.315430 522.743652,664.762329 524.959351,673.450317 
	C526.872925,680.953857 523.696045,689.428101 517.330200,692.809998 
	C510.558441,696.407532 503.164948,696.505676 495.688904,689.189270 
z"/>
<path fill="#241F21" opacity="1.000000" stroke="none" 
	d="
M376.786804,662.954346 
	C383.630157,666.427795 387.509766,671.534180 386.946198,679.078125 
	C386.438385,685.875549 383.009827,690.944519 376.662659,693.727051 
	C369.930847,696.678223 363.562408,695.091736 358.399963,690.583496 
	C353.959412,686.705688 351.911896,681.056396 353.184479,675.087280 
	C354.572083,668.578674 358.756653,663.753845 365.246765,662.217102 
	C368.717102,661.395325 372.667023,662.598816 376.786804,662.954346 
z"/>
<path fill="#252022" opacity="1.000000" stroke="none" 
	d="
M449.614685,646.862549 
	C450.853943,646.503906 451.628265,646.059448 452.412079,646.042053 
	C469.337555,645.665955 486.271057,644.910339 503.187347,645.187195 
	C511.175873,645.317871 519.433655,646.101013 526.503601,651.018616 
	C536.571838,658.021484 539.536987,667.953308 538.961792,679.090942 
	C537.171875,674.562866 535.778809,669.420471 533.232483,664.932556 
	C527.842346,655.432800 518.380676,652.297119 508.361084,652.141846 
	C481.554932,651.726440 454.727509,652.447021 427.930054,651.810364 
	C414.699219,651.496033 401.515839,649.182251 388.474487,646.975586 
	C408.701019,646.975586 428.927582,646.975586 449.614685,646.862549 
z"/>
<path fill="#241F21" opacity="1.000000" stroke="none" 
	d="
M385.182983,659.802979 
	C393.066101,662.250671 396.046814,669.054993 399.496887,676.000183 
	C412.550964,676.000183 425.840576,676.000122 439.130188,676.000122 
	C452.452240,676.000122 465.774292,676.000183 479.301514,676.000183 
	C481.533936,669.563843 483.461975,662.644836 490.075836,659.391968 
	C494.441406,657.244873 499.424652,656.353821 504.869904,654.672302 
	C499.589325,658.490723 494.252258,660.834045 491.298401,664.906067 
	C488.253967,669.103027 487.530457,674.983459 485.585175,680.737671 
	C455.383179,680.737671 423.977142,680.737671 391.979797,680.737671 
	C392.934631,672.994934 390.385162,666.420349 384.699890,660.663940 
	C384.874634,660.076355 385.028809,659.939636 385.182983,659.802979 
z"/>
<path fill="#F0A1A1" opacity="1.000000" stroke="none" 
	d="
M286.445007,487.094360 
	C286.505829,479.762329 286.899902,472.435303 287.293945,465.108276 
	C288.045105,465.133148 288.796265,465.157990 289.547424,465.182861 
	C289.547424,473.248016 289.547424,481.313171 289.323853,489.687744 
	C288.326263,489.031219 287.552246,488.065308 286.445007,487.094360 
z"/>
<path fill="#F0A1A1" opacity="1.000000" stroke="none" 
	d="
M292.595184,623.325073 
	C293.264069,630.407532 293.676147,637.810120 293.946777,645.674561 
	C293.290558,645.054016 292.350830,643.979309 292.330994,642.888000 
	C292.214508,636.475952 292.312622,630.059937 292.595184,623.325073 
z"/>
<path fill="#F0A1A1" opacity="1.000000" stroke="none" 
	d="
M289.438843,514.111755 
	C290.078339,517.441406 290.661957,521.218323 290.898712,525.016907 
	C291.111450,528.430237 290.943207,531.867310 290.789307,535.758118 
	C290.165558,534.761902 289.330048,533.311401 289.290131,531.839355 
	C289.134186,526.086121 289.229828,520.326050 289.438843,514.111755 
z"/>
<path fill="#F0A1A1" opacity="1.000000" stroke="none" 
	d="
M290.746338,556.321533 
	C291.314423,562.432678 291.628906,568.865356 291.708649,575.629639 
	C291.146851,569.521851 290.819794,563.082520 290.746338,556.321533 
z"/>
<path fill="#F0A1A1" opacity="1.000000" stroke="none" 
	d="
M284.858215,527.052185 
	C284.647278,520.897583 284.734131,514.509338 285.125610,507.895508 
	C285.338806,514.052795 285.247375,520.435669 284.858215,527.052185 
z"/>
<path fill="#F0A1A1" opacity="1.000000" stroke="none" 
	d="
M283.553711,564.989014 
	C283.301270,559.293274 283.404907,553.447632 283.793823,547.301025 
	C284.022675,552.946350 283.966248,558.892761 283.553711,564.989014 
z"/>
<path fill="#F0A1A1" opacity="1.000000" stroke="none" 
	d="
M291.360931,580.125000 
	C291.957794,585.577698 292.341644,591.484314 292.534729,597.848999 
	C291.945282,592.397644 291.546631,586.488220 291.360931,580.125000 
z"/>
<path fill="#F0A1A1" opacity="1.000000" stroke="none" 
	d="
M281.654724,610.020508 
	C281.455048,605.844849 281.594635,601.488464 282.018677,596.885986 
	C282.200104,601.039856 282.097046,605.439880 281.654724,610.020508 
z"/>
<path fill="#F0A1A1" opacity="1.000000" stroke="none" 
	d="
M307.864258,663.048950 
	C307.649078,658.898682 307.729401,654.509705 308.108429,649.891968 
	C308.324677,654.045593 308.242218,658.427917 307.864258,663.048950 
z"/>
<path fill="#F0A1A1" opacity="1.000000" stroke="none" 
	d="
M283.111237,575.721313 
	C282.757172,573.513367 282.667236,571.027161 282.843933,568.270386 
	C283.198853,570.480896 283.287109,572.962036 283.111237,575.721313 
z"/>
<path fill="#F0A1A1" opacity="1.000000" stroke="none" 
	d="
M279.918091,625.130737 
	C279.920685,622.731323 280.211487,620.152771 280.749512,617.287109 
	C280.733276,619.650574 280.469788,622.301147 279.918091,625.130737 
z"/>
<path fill="#F0A1A1" opacity="1.000000" stroke="none" 
	d="
M308.863953,646.771912 
	C308.505432,644.822205 308.476562,642.675537 308.705872,640.264526 
	C309.040588,642.191833 309.117096,644.383362 308.863953,646.771912 
z"/>
<path fill="#F0A1A1" opacity="1.000000" stroke="none" 
	d="
M309.664948,634.036621 
	C309.492126,632.496033 309.649567,630.782654 310.107788,628.865540 
	C310.270782,630.395813 310.132996,632.129822 309.664948,634.036621 
z"/>
<path fill="#F0A1A1" opacity="1.000000" stroke="none" 
	d="
M293.750854,653.247803 
	C294.162018,654.490479 294.336365,655.980957 294.301880,657.734741 
	C293.900085,656.497314 293.707062,654.996460 293.750854,653.247803 
z"/>
<path fill="#F0A1A1" opacity="1.000000" stroke="none" 
	d="
M286.072632,497.767517 
	C285.716339,496.501770 285.614014,495.004150 285.734528,493.253601 
	C286.080444,494.512329 286.203522,496.024017 286.072632,497.767517 
z"/>
<path fill="#F0A1A1" opacity="1.000000" stroke="none" 
	d="
M298.975128,668.452515 
	C300.031525,668.086670 301.166748,668.040222 302.719360,668.089111 
	C301.775818,668.380249 300.414886,668.576050 298.975128,668.452515 
z"/>
<path fill="#F0A1A1" opacity="1.000000" stroke="none" 
	d="
M311.442444,623.046631 
	C311.288025,622.208374 311.427429,621.304688 311.863586,620.202148 
	C312.018951,620.995911 311.877563,621.988586 311.442444,623.046631 
z"/>
<path fill="#F0A1A1" opacity="1.000000" stroke="none" 
	d="
M312.760864,618.106689 
	C312.623138,617.489929 312.759521,616.715088 313.184448,615.806519 
	C313.326996,616.431396 313.181000,617.190063 312.760864,618.106689 
z"/>
<path fill="#F0A1A1" opacity="1.000000" stroke="none" 
	d="
M314.594177,613.093750 
	C314.543549,612.459045 314.800293,611.724182 315.349426,610.869019 
	C315.395081,611.497009 315.148285,612.245239 314.594177,613.093750 
z"/>
<path fill="#F0A1A1" opacity="1.000000" stroke="none" 
	d="
M294.357239,664.023438 
	C294.962585,664.289917 295.463501,664.876099 295.937012,665.769165 
	C295.357330,665.498413 294.805084,664.920776 294.357239,664.023438 
z"/>
<path fill="#252022" opacity="1.000000" stroke="none" 
	d="
M463.556427,638.544312 
	C464.432922,638.720154 465.089020,639.063782 466.679413,639.896790 
	C464.845123,639.794556 464.019989,639.748596 463.060486,639.393738 
	C463.062744,638.960632 463.199402,638.836365 463.556427,638.544312 
z"/>
<path fill="#241F21" opacity="1.000000" stroke="none" 
	d="
M384.475647,660.401611 
	C383.568573,660.257202 382.906342,659.924194 381.513153,659.223694 
	C383.145874,659.223694 383.990143,659.223694 385.008667,659.513306 
	C385.028809,659.939636 384.874634,660.076355 384.475647,660.401611 
z"/>
</svg>