<?xml version="1.0" standalone="no"?>
<!DOCTYPE svg PUBLIC "-//W3C//DTD SVG 20010904//EN"
 "http://www.w3.org/TR/2001/REC-SVG-20010904/DTD/svg10.dtd">
<svg version="1.0" xmlns="http://www.w3.org/2000/svg"
 width="1080.000000pt" height="1080.000000pt" viewBox="0 0 1080.000000 1080.000000"
 preserveAspectRatio="xMidYMid meet">

<g transform="translate(0.000000,1080.000000) scale(0.100000,-0.100000)"
fill="#000000" stroke="none">
<path d="M2846 6828 c-3 -13 -10 -70 -16 -128 -6 -58 -15 -139 -20 -180 -11
-79 -25 -240 -40 -450 -4 -69 -11 -150 -14 -180 -4 -30 -11 -129 -16 -220 -15
-245 -27 -396 -46 -580 -9 -91 -19 -195 -23 -232 -3 -36 -9 -70 -13 -74 -4 -3
-27 15 -52 42 l-44 49 -72 0 c-63 0 -74 3 -91 24 -10 13 -19 30 -19 38 0 47
-115 208 -174 244 -38 23 -134 26 -175 4 -66 -33 -147 -156 -177 -265 -10 -39
-50 -87 -94 -111 -22 -13 -39 -28 -37 -33 10 -31 122 -5 173 40 12 11 41 51
66 89 58 91 115 128 159 105 29 -16 84 -102 102 -161 32 -104 103 -153 216
-147 l66 3 42 -86 c65 -136 136 -174 201 -109 49 48 49 49 83 1055 11 322 24
535 37 585 12 50 19 -125 52 -1355 14 -545 19 -624 41 -646 23 -23 47 -24 77
-3 19 13 22 24 22 78 0 115 30 345 55 418 58 172 163 195 505 112 205 -50 295
-6 481 233 94 120 140 162 206 186 60 22 88 21 138 -2 60 -27 119 -93 165
-185 45 -88 80 -138 119 -174 62 -55 -69 -52 2061 -52 1958 0 2214 3 2207 24
-5 16 -325 23 -1527 36 -2808 30 -2596 26 -2645 50 -52 25 -75 55 -135 173
-72 143 -141 209 -252 241 -46 13 -66 14 -105 6 -112 -26 -200 -89 -275 -200
-87 -127 -195 -235 -253 -251 -39 -12 -96 -4 -315 41 -78 16 -178 23 -235 15
-73 -9 -140 -54 -185 -124 l-35 -55 -7 45 c-4 24 -12 161 -17 304 -12 309 -27
618 -41 845 -6 91 -15 253 -21 360 -10 190 -20 330 -35 498 -7 82 -7 82 -35
82 -22 0 -30 -6 -33 -22z"/>
<path d="M6742 5508 c-34 -34 6 -90 48 -68 35 19 20 80 -20 80 -9 0 -21 -5
-28 -12z"/>
<path d="M5970 5225 l0 -265 83 0 c203 0 297 86 297 270 0 117 -43 198 -124
236 -43 20 -67 24 -153 24 l-103 0 0 -265z m234 186 c100 -62 104 -292 6 -363
-27 -20 -141 -44 -165 -34 -13 4 -15 37 -15 209 0 112 3 207 8 211 14 15 130
-1 166 -23z"/>
<path d="M6595 5350 c-11 -4 -31 -19 -44 -34 -27 -29 -41 -26 -41 10 0 19 -5
24 -25 24 l-25 0 0 -195 0 -195 30 0 30 0 0 127 c0 115 2 130 22 159 25 36 56
54 93 54 24 0 42 30 30 50 -7 12 -42 12 -70 0z"/>
<path d="M7379 5337 c-33 -18 -51 -37 -71 -76 -57 -109 -23 -236 77 -289 40
-20 131 -20 173 2 34 18 37 23 23 45 -8 12 -14 13 -36 3 -66 -30 -162 -1 -183
56 -25 67 -35 62 115 62 l136 0 -6 59 c-6 75 -30 116 -82 141 -54 26 -92 25
-146 -3z m116 -41 c37 -16 55 -42 55 -80 l0 -26 -100 0 c-84 0 -100 3 -100 15
0 31 32 77 63 90 40 18 41 18 82 1z"/>
<path d="M7832 5343 c-18 -9 -37 -24 -43 -35 -13 -24 -29 -14 -29 18 0 19 -5
24 -25 24 l-25 0 0 -195 0 -195 30 0 30 0 0 127 c0 115 2 130 22 159 25 36 56
54 93 54 15 0 26 7 30 20 13 42 -24 52 -83 23z"/>
<path d="M6740 5155 l0 -195 30 0 30 0 0 195 0 195 -30 0 -30 0 0 -195z"/>
<path d="M6909 5273 c16 -43 48 -131 71 -195 l43 -118 37 0 37 0 67 188 c36
104 66 191 66 195 0 4 -13 7 -30 7 -29 0 -30 -1 -82 -165 -29 -91 -55 -165
-58 -165 -3 0 -29 74 -58 165 l-53 165 -34 0 -34 0 28 -77z"/>
<path d="M4025 4559 c-93 -14 -163 -37 -265 -89 -127 -64 -162 -73 -315 -79
-123 -6 -130 -7 -127 -26 15 -83 14 -99 -8 -142 -19 -37 -22 -56 -18 -108 3
-35 9 -68 12 -74 4 -6 39 -11 85 -11 l78 0 6 42 c8 61 52 118 116 151 44 21
49 27 29 27 -14 0 -45 -7 -68 -15 -23 -8 -74 -15 -112 -15 -63 0 -69 2 -63 18
5 9 10 32 13 49 4 29 10 34 46 44 58 16 217 5 293 -20 105 -34 256 -52 473
-56 113 -1 185 -1 160 1 -280 26 -492 65 -588 109 l-57 26 40 25 c48 29 141
59 232 75 152 26 428 -5 618 -70 78 -27 51 -3 -50 44 -187 88 -361 118 -530
94z"/>
<path d="M7170 4411 l0 -109 -49 20 c-63 27 -109 19 -162 -29 -48 -44 -62 -89
-58 -185 4 -63 9 -81 32 -111 15 -20 37 -42 48 -48 37 -20 106 -13 154 16 l45
26 0 -26 c0 -20 5 -25 25 -25 l25 0 0 290 0 290 -30 0 -30 0 0 -109z m-29
-146 l30 -16 -3 -107 -3 -106 -34 -23 c-86 -58 -171 1 -171 119 0 50 30 121
57 137 27 15 90 13 124 -4z"/>
<path d="M8330 4258 c0 -303 2 -311 66 -316 40 -3 41 -2 37 22 -3 15 -11 26
-18 26 -22 0 -25 37 -25 288 l0 242 -30 0 -30 0 0 -262z"/>
<path d="M7370 4486 c-6 -8 -10 -25 -8 -38 2 -18 10 -24 36 -26 36 -4 48 13
38 53 -7 29 -45 35 -66 11z"/>
<path d="M5942 4208 l3 -263 28 -3 27 -3 1 223 0 223 64 -182 c35 -101 66
-187 70 -193 3 -5 17 -10 29 -10 22 0 29 16 84 168 32 92 64 180 69 197 7 21
9 -38 9 -195 l-1 -225 28 -3 27 -3 0 266 0 266 -42 -3 -41 -3 -62 -181 c-34
-99 -64 -187 -67 -195 -3 -7 -13 11 -23 41 -10 30 -40 119 -67 198 l-50 142
-44 0 -44 0 2 -262z"/>
<path d="M4565 4349 c-82 -5 -273 -8 -424 -7 l-274 3 73 -17 c122 -28 313 -38
751 -38 382 0 422 -2 478 -19 107 -33 162 -93 196 -211 l15 -55 -4 68 c-7 129
-81 226 -200 263 -63 20 -387 27 -611 13z"/>
<path d="M6605 4326 c-41 -18 -92 -77 -104 -123 -28 -100 9 -202 89 -243 50
-25 142 -26 188 -2 29 16 31 20 19 36 -12 17 -18 18 -47 8 -43 -15 -89 -15
-120 1 -29 15 -70 72 -70 98 0 18 10 19 131 19 l131 0 -4 63 c-3 45 -10 72
-27 96 -40 56 -120 76 -186 47z m128 -64 c19 -19 39 -77 29 -86 -10 -10 -191
-6 -197 4 -11 18 26 78 58 94 37 19 84 14 110 -12z"/>
<path d="M7663 4329 c-147 -43 -167 -297 -30 -371 45 -24 133 -23 175 2 35 22
39 32 18 49 -10 8 -20 8 -42 -4 -90 -47 -177 17 -178 130 0 65 27 114 78 139
35 17 40 17 78 2 31 -12 45 -13 55 -5 23 20 14 36 -27 53 -45 18 -78 19 -127
5z"/>
<path d="M8010 4331 c-14 -5 -40 -16 -58 -25 -28 -14 -31 -20 -22 -36 13 -24
9 -24 53 -5 80 33 157 9 157 -49 0 -26 -7 -30 -80 -41 -84 -13 -146 -57 -156
-110 -7 -40 17 -99 47 -116 38 -20 104 -14 153 15 l45 26 3 -22 c2 -17 10 -23
28 -23 l25 0 0 150 c0 126 -3 155 -18 183 -29 52 -104 75 -177 53z m130 -246
c0 -54 -1 -55 -40 -75 -72 -37 -130 -22 -130 33 0 18 4 37 8 43 15 24 87 52
135 53 26 1 27 0 27 -54z"/>
<path d="M7370 4135 l0 -195 30 0 30 0 0 195 0 195 -30 0 -30 0 0 -195z"/>
<path d="M4937 4240 c-47 -14 -96 -58 -122 -110 -14 -27 -25 -56 -25 -65 0
-13 -48 -15 -404 -15 l-404 0 -12 29 c-27 67 -85 124 -136 137 l-29 7 32 -27
c41 -35 73 -102 73 -154 l0 -42 475 0 475 0 0 26 c0 93 60 184 138 208 l47 15
-40 -1 c-22 0 -53 -4 -68 -8z"/>
<path d="M3637 4185 c-140 -49 -156 -234 -27 -302 55 -29 105 -29 160 0 134
71 110 266 -38 307 -46 12 -48 12 -95 -5z"/>
<path d="M5025 4189 c-166 -51 -143 -307 29 -326 87 -10 163 42 186 127 22 82
-32 176 -115 199 -46 13 -59 13 -100 0z"/>
</g>
</svg>
