<?xml version="1.0" standalone="no"?>
<!DOCTYPE svg PUBLIC "-//W3C//DTD SVG 20010904//EN"
 "http://www.w3.org/TR/2001/REC-SVG-20010904/DTD/svg10.dtd">
<svg version="1.0" xmlns="http://www.w3.org/2000/svg"
 width="835.000000pt" height="299.000000pt" viewBox="0 0 835.000000 299.000000"
 preserveAspectRatio="xMidYMid meet">

<g transform="translate(0.000000,299.000000) scale(0.100000,-0.100000)"
fill="#000000" stroke="none">
<path d="M4130 2883 c-193 -9 -568 -37 -730 -54 -102 -11 -203 -22 -225 -24
-22 -2 -84 -10 -138 -16 -94 -12 -97 -13 -80 -31 11 -13 25 -17 42 -13 61 12
414 56 602 75 400 39 630 52 1049 59 l425 8 -440 -1 c-242 0 -469 -1 -505 -3z"/>
<path d="M4613 2823 c20 -2 54 -2 75 0 20 2 3 4 -38 4 -41 0 -58 -2 -37 -4z"/>
<path d="M4393 2813 c20 -2 54 -2 75 0 20 2 3 4 -38 4 -41 0 -58 -2 -37 -4z"/>
<path d="M4243 2803 c15 -2 37 -2 50 0 12 2 0 4 -28 4 -27 0 -38 -2 -22 -4z"/>
<path d="M3925 2780 c-3 -5 -2 -10 4 -10 5 0 13 5 16 10 3 6 2 10 -4 10 -5 0
-13 -4 -16 -10z"/>
<path d="M2850 2760 c-8 -5 -33 -10 -56 -10 -87 0 -586 -94 -900 -170 -707
-170 -1279 -413 -1589 -676 -381 -323 -395 -714 -41 -1089 l57 -60 -39 55
c-113 157 -162 279 -169 425 -6 121 6 188 53 286 51 105 109 182 216 284 391
374 1235 698 2323 890 126 22 153 30 172 51 19 20 20 24 5 24 -9 0 -24 -5 -32
-10z"/>
<path d="M4515 2763 c-301 -18 -409 -26 -580 -44 -349 -35 -932 -120 -945
-137 -3 -4 -25 -8 -50 -8 -86 -3 -563 -113 -866 -199 -477 -136 -925 -321
-1160 -478 -282 -188 -443 -417 -444 -629 0 -171 105 -352 275 -473 199 -141
519 -233 910 -261 l99 -7 -64 53 c-88 72 -245 232 -303 306 l-47 62 68 15 c37
8 95 21 129 28 l63 13 107 -106 c60 -58 143 -128 186 -156 121 -79 284 -136
469 -163 106 -16 395 -16 518 0 100 13 305 48 330 57 8 3 -31 23 -85 45 -348
139 -645 339 -791 532 -54 71 -116 197 -135 277 -8 31 -13 101 -13 160 2 114
22 194 71 278 64 111 242 258 418 345 433 215 1187 370 2220 457 416 35 418
37 30 37 -198 0 -382 -2 -410 -4z m-1096 -177 c-2 -2 -78 -20 -169 -41 -451
-102 -865 -237 -1160 -377 -88 -42 -148 -64 -205 -74 -113 -20 -119 -17 -44
21 282 144 760 302 1244 409 274 60 347 74 334 62z m-1590 -559 c-2 -2 -33
-24 -69 -49 -36 -25 -87 -66 -115 -90 -45 -41 -60 -48 -148 -68 -54 -12 -101
-20 -103 -17 -7 7 113 108 189 159 51 34 77 45 152 58 80 15 107 17 94 7z
m-1005 -286 c-3 -3 -15 6 -27 18 l-22 24 27 -19 c14 -10 24 -21 22 -23z m696
15 c0 -2 -16 -30 -35 -62 -36 -59 -61 -131 -67 -189 -3 -29 -6 -30 -93 -52
-127 -31 -136 -30 -128 7 5 26 3 30 -16 30 -25 0 -26 -15 -6 -64 14 -33 14
-37 -4 -55 -24 -24 -54 -18 -81 17 -31 38 -24 51 8 13 18 -22 34 -32 47 -29
23 4 24 27 4 76 -13 31 -12 35 5 48 11 8 28 12 38 8 12 -3 18 0 18 9 0 23 77
171 99 191 24 22 211 68 211 52z m-759 -33 c13 -16 12 -17 -3 -4 -10 7 -18 15
-18 17 0 8 8 3 21 -13z m108 14 c-2 -1 -13 -9 -24 -17 -19 -14 -19 -14 -6 3 7
9 18 17 24 17 6 0 8 -1 6 -3z m120 -44 c-7 -10 -31 -34 -53 -52 -37 -32 -37
-31 9 17 52 55 63 63 44 35z m-138 -60 c13 -16 12 -17 -3 -4 -10 7 -18 15 -18
17 0 8 8 3 21 -13z m138 -16 c-2 -1 -13 -9 -24 -17 -19 -14 -19 -14 -6 3 7 9
18 17 24 17 6 0 8 -1 6 -3z m71 -45 c0 -21 -27 -62 -41 -62 -5 0 0 9 12 21 14
14 19 29 16 45 -2 13 0 21 4 18 5 -3 9 -13 9 -22z m210 -167 c-9 -11 -10 -18
-1 -29 9 -11 20 -11 69 0 31 8 62 14 67 14 6 0 16 -24 23 -52 19 -80 43 -138
58 -138 8 0 11 -6 7 -16 -3 -8 4 -29 16 -45 12 -16 18 -29 14 -28 -4 1 -20 1
-35 0 -23 -1 -28 -7 -37 -43 l-10 -43 2 38 c3 42 4 42 -78 22 -96 -23 -97 -22
-123 43 -13 31 -30 82 -38 112 -8 30 -18 63 -21 72 -3 11 12 34 43 68 26 27
49 48 52 45 3 -2 -1 -11 -8 -20z"/>
<path d="M1235 1369 c-10 -14 -1 -21 19 -13 9 3 13 10 10 15 -7 12 -21 11 -29
-2z"/>
<path d="M2894 2745 c-18 -13 -17 -14 18 -15 39 0 58 14 32 24 -23 9 -28 8
-50 -9z"/>
<path d="M5890 2710 c0 -5 5 -10 10 -10 6 0 10 5 10 10 0 6 -4 10 -10 10 -5 0
-10 -4 -10 -10z"/>
<path d="M5935 2710 c3 -5 16 -10 28 -9 21 0 21 1 2 9 -28 12 -37 12 -30 0z"/>
<path d="M6000 2710 c-13 -8 -12 -10 3 -10 9 0 17 5 17 10 0 12 -1 12 -20 0z"/>
<path d="M6053 2708 c-2 -5 78 -7 179 -6 184 2 165 6 -55 10 -66 2 -121 0
-124 -4z"/>
<path d="M5360 2695 c-7 -8 -8 -15 -2 -15 5 0 15 7 22 15 7 8 8 15 2 15 -5 0
-15 -7 -22 -15z"/>
<path d="M6553 2693 c20 -2 54 -2 75 0 20 2 3 4 -38 4 -41 0 -58 -2 -37 -4z"/>
<path d="M2995 2679 c-4 -5 5 -9 18 -9 14 0 40 -2 58 -5 19 -3 27 -3 19 1 -8
3 -22 8 -30 12 -27 10 -59 11 -65 1z"/>
<path d="M6798 2683 c7 -3 16 -2 19 1 4 3 -2 6 -13 5 -11 0 -14 -3 -6 -6z"/>
<path d="M2933 2673 c-12 -2 -24 -11 -27 -20 -11 -28 4 -28 32 0 14 15 24 26
22 26 -3 -1 -15 -4 -27 -6z"/>
<path d="M2875 2650 c3 -5 8 -10 11 -10 2 0 4 5 4 10 0 6 -5 10 -11 10 -5 0
-7 -4 -4 -10z"/>
<path d="M6000 2620 c0 -5 5 -10 10 -10 6 0 10 5 10 10 0 6 -4 10 -10 10 -5 0
-10 -4 -10 -10z"/>
<path d="M6453 2623 c31 -2 83 -2 115 0 31 2 5 3 -58 3 -63 0 -89 -1 -57 -3z"/>
<path d="M6787 2613 c18 -2 50 -2 70 0 21 2 7 4 -32 4 -38 0 -55 -2 -38 -4z"/>
<path d="M7048 2603 c7 -3 16 -2 19 1 4 3 -2 6 -13 5 -11 0 -14 -3 -6 -6z"/>
<path d="M5246 2585 c-3 -8 -3 -15 0 -15 3 0 12 7 20 15 13 13 13 15 1 15 -8
0 -17 -7 -21 -15z"/>
<path d="M2140 2510 c-8 -5 -10 -10 -5 -10 6 0 17 5 25 10 8 5 11 10 5 10 -5
0 -17 -5 -25 -10z"/>
<path d="M2086 2454 c-11 -8 -16 -14 -10 -14 13 0 39 18 34 24 -3 2 -14 -2
-24 -10z"/>
<path d="M3575 2430 c-3 -5 -2 -10 4 -10 5 0 13 5 16 10 3 6 2 10 -4 10 -5 0
-13 -4 -16 -10z"/>
<path d="M3455 2302 c-5 -4 -19 -18 -30 -32 -17 -21 -14 -20 15 5 19 17 37 31
39 33 2 1 0 2 -5 2 -5 0 -13 -4 -19 -8z"/>
<path d="M3340 2188 c-25 -22 -36 -36 -25 -30 19 10 84 72 74 72 -2 -1 -24
-19 -49 -42z"/>
<path d="M677 1897 c-28 -65 -33 -92 -18 -101 5 -4 7 2 4 13 -2 10 5 37 17 60
29 57 41 91 32 91 -4 0 -19 -29 -35 -63z"/>
<path d="M711 1895 c-17 -37 -31 -69 -31 -72 0 -7 79 37 85 48 4 6 -7 4 -23
-5 -17 -9 -34 -16 -37 -16 -3 0 6 23 21 51 14 28 23 53 20 56 -3 3 -19 -25
-35 -62z"/>
<path d="M6849 1585 c80 -86 144 -184 178 -272 35 -92 37 -212 4 -295 -65
-166 -264 -327 -553 -447 -255 -106 -659 -212 -1018 -267 -25 -3 -48 -12 -52
-18 -5 -8 -8 -7 -8 2 0 7 -3 11 -8 8 -9 -6 -46 -11 -252 -36 -459 -55 -854
-74 -1460 -69 -261 2 -432 1 -380 -2 52 -4 293 -10 535 -14 547 -10 848 2
1360 51 124 12 175 21 189 33 11 9 16 10 12 4 -10 -17 -8 -17 189 12 577 85
1047 230 1306 404 96 64 198 171 235 247 26 53 29 69 29 159 0 95 -2 104 -37
177 -20 43 -51 98 -67 122 -39 56 -171 197 -224 238 -35 27 -32 22 22 -37z"/>
<path d="M7069 1525 c179 -193 245 -384 193 -553 -80 -256 -443 -477 -1028
-627 -162 -42 -447 -100 -571 -116 -80 -11 -96 -16 -120 -41 l-27 -28 29 5
c17 2 100 14 185 25 490 66 944 186 1213 321 158 79 219 120 302 204 78 78
117 148 135 240 21 109 -25 254 -123 385 -50 68 -158 181 -212 223 -32 25 -27
18 24 -38z"/>
<path d="M2617 1468 c-10 -11 -17 -22 -14 -24 2 -2 12 5 22 16 23 26 16 33 -8
8z"/>
<path d="M2566 1415 c-9 -26 -7 -32 5 -12 6 10 9 21 6 23 -2 3 -7 -2 -11 -11z"/>
<path d="M2630 1025 c13 -14 26 -25 28 -25 3 0 -5 11 -18 25 -13 14 -26 25
-28 25 -3 0 5 -11 18 -25z"/>
<path d="M2900 946 c0 -2 8 -10 18 -17 15 -13 16 -12 3 4 -13 16 -21 21 -21
13z"/>
<path d="M2988 213 c12 -2 30 -2 40 0 9 3 -1 5 -23 4 -22 0 -30 -2 -17 -4z"/>
<path d="M3108 203 c18 -2 45 -2 60 0 15 2 0 4 -33 4 -33 0 -45 -2 -27 -4z"/>
<path d="M5375 190 c-421 -54 -823 -73 -1430 -69 -269 2 -447 1 -395 -3 52 -4
311 -10 575 -14 530 -7 769 1 1220 42 147 13 162 16 185 39 29 30 41 30 -155
5z"/>
<path d="M3123 153 c9 -2 23 -2 30 0 6 3 -1 5 -18 5 -16 0 -22 -2 -12 -5z"/>
<path d="M3228 143 c12 -2 32 -2 45 0 12 2 2 4 -23 4 -25 0 -35 -2 -22 -4z"/>
<path d="M3348 133 c17 -2 47 -2 65 0 17 2 3 4 -33 4 -36 0 -50 -2 -32 -4z"/>
</g>
</svg>
