<?xml version="1.0" standalone="no"?>
<!DOCTYPE svg PUBLIC "-//W3C//DTD SVG 20010904//EN"
 "http://www.w3.org/TR/2001/REC-SVG-20010904/DTD/svg10.dtd">
<svg version="1.0" xmlns="http://www.w3.org/2000/svg"
 width="332.000000pt" height="146.000000pt" viewBox="0 0 332.000000 146.000000"
 preserveAspectRatio="xMidYMid meet">

<g transform="translate(0.000000,146.000000) scale(0.100000,-0.100000)"
fill="#000000" stroke="none">
<path d="M1100 433 c-8 -3 -45 -18 -82 -34 -46 -20 -83 -29 -121 -29 -50 0
-55 -2 -50 -20 3 -11 0 -34 -6 -51 -6 -17 -8 -42 -5 -55 5 -19 13 -24 40 -24
27 0 34 4 34 19 0 10 11 30 25 43 l25 26 -46 -6 c-42 -4 -47 -3 -41 12 4 10 7
22 7 27 0 14 78 11 140 -6 30 -8 98 -17 150 -19 68 -3 81 -2 45 4 -30 4 40 7
175 6 242 -1 251 -3 283 -55 13 -21 17 -23 17 -8 0 11 -15 34 -33 52 -42 42
-85 47 -367 37 -208 -7 -275 -2 -267 21 12 38 196 53 302 24 32 -9 61 -15 63
-13 2 2 -23 14 -55 27 -57 22 -199 36 -233 22z m43 -100 c-7 -2 -19 -2 -25 0
-7 3 -2 5 12 5 14 0 19 -2 13 -5z"/>
<path d="M1492 294 c-13 -9 -27 -27 -32 -40 -9 -24 -10 -24 -172 -24 l-163 0
-28 35 c-15 19 -32 35 -38 35 -6 0 -1 -12 10 -26 12 -15 21 -35 21 -45 0 -18
11 -19 194 -19 l194 0 7 30 c4 16 18 39 32 50 31 24 8 28 -25 4z"/>
<path d="M956 269 c-32 -25 -34 -66 -6 -97 40 -42 100 -20 116 42 4 19 -1 32
-20 50 -31 31 -55 33 -90 5z"/>
<path d="M1525 265 c-30 -30 -31 -54 -4 -89 26 -33 68 -34 97 -3 30 32 28 71
-4 96 -35 27 -59 26 -89 -4z"/>
</g>
</svg>
