<?xml version="1.0" encoding="utf-8"?>
<svg version="1.1" xmlns:xlink="http://www.w3.org/1999/xlink" width="15px" height="15px" xmlns="http://www.w3.org/2000/svg">
  <defs>
    <mask fill="white" id="clip8">
      <path d="M 9.19921875 9.19921875  C 9.98948317307692 8.40895432692308  10.3846153846154 7.45793269230769  10.3846153846154 6.34615384615385  C 10.3846153846154 5.234375  9.98948317307692 4.28335336538462  9.19921875 3.49308894230769  C 8.40895432692308 2.70282451923077  7.45793269230769 2.30769230769231  6.34615384615385 2.30769230769231  C 5.234375 2.30769230769231  4.28335336538462 2.70282451923077  3.49308894230769 3.49308894230769  C 2.70282451923077 4.28335336538462  2.30769230769231 5.234375  2.30769230769231 6.34615384615385  C 2.30769230769231 7.45793269230769  2.70282451923077 8.40895432692308  3.49308894230769 9.19921875  C 4.28335336538462 9.98948317307692  5.234375 10.3846153846154  6.34615384615385 10.3846153846154  C 7.45793269230769 10.3846153846154  8.40895432692308 9.98948317307692  9.19921875 9.19921875  Z M 14.6664663461538 13.0348557692308  C 14.8888221153846 13.2572115384615  15 13.5276442307692  15 13.8461538461538  C 15 14.1586538461538  14.8858173076923 14.4290865384615  14.6574519230769 14.6574519230769  C 14.4290865384615 14.8858173076923  14.1586538461538 15  13.8461538461538 15  C 13.5216346153846 15  13.2512019230769 14.8858173076923  13.0348557692308 14.6574519230769  L 9.94290865384615 11.5745192307692  C 8.8671875 12.3197115384615  7.66826923076923 12.6923076923077  6.34615384615385 12.6923076923077  C 5.48677884615385 12.6923076923077  4.66496394230769 12.5255408653846  3.88070913461538 12.1920072115385  C 3.09645432692308 11.8584735576923  2.42037259615385 11.4077524038462  1.85246394230769 10.83984375  C 1.28455528846154 10.2719350961538  0.833834134615385 9.59585336538462  0.500300480769231 8.81159855769231  C 0.166766826923077 8.02734375  0 7.20552884615384  0 6.34615384615385  C 0 5.48677884615384  0.166766826923077 4.66496394230769  0.500300480769231 3.88070913461538  C 0.833834134615385 3.09645432692308  1.28455528846154 2.42037259615385  1.85246394230769 1.85246394230769  C 2.42037259615385 1.28455528846154  3.09645432692308 0.833834134615384  3.88070913461538 0.500300480769231  C 4.66496394230769 0.166766826923077  5.48677884615385 0  6.34615384615385 0  C 7.20552884615385 0  8.02734375 0.166766826923077  8.81159855769231 0.500300480769231  C 9.59585336538462 0.833834134615384  10.2719350961538 1.28455528846154  10.83984375 1.85246394230769  C 11.4077524038462 2.42037259615385  11.8584735576923 3.09645432692308  12.1920072115385 3.88070913461538  C 12.5255408653846 4.66496394230769  12.6923076923077 5.48677884615384  12.6923076923077 6.34615384615385  C 12.6923076923077 7.66826923076923  12.3197115384615 8.8671875  11.5745192307692 9.94290865384615  L 14.6664663461538 13.0348557692308  Z " fill-rule="evenodd" />
    </mask>
  </defs>
  <g transform="matrix(1 0 0 1 -10 -165 )">
    <path d="M 9.19921875 9.19921875  C 9.98948317307692 8.40895432692308  10.3846153846154 7.45793269230769  10.3846153846154 6.34615384615385  C 10.3846153846154 5.234375  9.98948317307692 4.28335336538462  9.19921875 3.49308894230769  C 8.40895432692308 2.70282451923077  7.45793269230769 2.30769230769231  6.34615384615385 2.30769230769231  C 5.234375 2.30769230769231  4.28335336538462 2.70282451923077  3.49308894230769 3.49308894230769  C 2.70282451923077 4.28335336538462  2.30769230769231 5.234375  2.30769230769231 6.34615384615385  C 2.30769230769231 7.45793269230769  2.70282451923077 8.40895432692308  3.49308894230769 9.19921875  C 4.28335336538462 9.98948317307692  5.234375 10.3846153846154  6.34615384615385 10.3846153846154  C 7.45793269230769 10.3846153846154  8.40895432692308 9.98948317307692  9.19921875 9.19921875  Z M 14.6664663461538 13.0348557692308  C 14.8888221153846 13.2572115384615  15 13.5276442307692  15 13.8461538461538  C 15 14.1586538461538  14.8858173076923 14.4290865384615  14.6574519230769 14.6574519230769  C 14.4290865384615 14.8858173076923  14.1586538461538 15  13.8461538461538 15  C 13.5216346153846 15  13.2512019230769 14.8858173076923  13.0348557692308 14.6574519230769  L 9.94290865384615 11.5745192307692  C 8.8671875 12.3197115384615  7.66826923076923 12.6923076923077  6.34615384615385 12.6923076923077  C 5.48677884615385 12.6923076923077  4.66496394230769 12.5255408653846  3.88070913461538 12.1920072115385  C 3.09645432692308 11.8584735576923  2.42037259615385 11.4077524038462  1.85246394230769 10.83984375  C 1.28455528846154 10.2719350961538  0.833834134615385 9.59585336538462  0.500300480769231 8.81159855769231  C 0.166766826923077 8.02734375  0 7.20552884615384  0 6.34615384615385  C 0 5.48677884615384  0.166766826923077 4.66496394230769  0.500300480769231 3.88070913461538  C 0.833834134615385 3.09645432692308  1.28455528846154 2.42037259615385  1.85246394230769 1.85246394230769  C 2.42037259615385 1.28455528846154  3.09645432692308 0.833834134615384  3.88070913461538 0.500300480769231  C 4.66496394230769 0.166766826923077  5.48677884615385 0  6.34615384615385 0  C 7.20552884615385 0  8.02734375 0.166766826923077  8.81159855769231 0.500300480769231  C 9.59585336538462 0.833834134615384  10.2719350961538 1.28455528846154  10.83984375 1.85246394230769  C 11.4077524038462 2.42037259615385  11.8584735576923 3.09645432692308  12.1920072115385 3.88070913461538  C 12.5255408653846 4.66496394230769  12.6923076923077 5.48677884615384  12.6923076923077 6.34615384615385  C 12.6923076923077 7.66826923076923  12.3197115384615 8.8671875  11.5745192307692 9.94290865384615  L 14.6664663461538 13.0348557692308  Z " fill-rule="nonzero" fill="#ffffff" stroke="none" fill-opacity="0.996078431372549" transform="matrix(1 0 0 1 10 165 )" />
    <path d="M 9.19921875 9.19921875  C 9.98948317307692 8.40895432692308  10.3846153846154 7.45793269230769  10.3846153846154 6.34615384615385  C 10.3846153846154 5.234375  9.98948317307692 4.28335336538462  9.19921875 3.49308894230769  C 8.40895432692308 2.70282451923077  7.45793269230769 2.30769230769231  6.34615384615385 2.30769230769231  C 5.234375 2.30769230769231  4.28335336538462 2.70282451923077  3.49308894230769 3.49308894230769  C 2.70282451923077 4.28335336538462  2.30769230769231 5.234375  2.30769230769231 6.34615384615385  C 2.30769230769231 7.45793269230769  2.70282451923077 8.40895432692308  3.49308894230769 9.19921875  C 4.28335336538462 9.98948317307692  5.234375 10.3846153846154  6.34615384615385 10.3846153846154  C 7.45793269230769 10.3846153846154  8.40895432692308 9.98948317307692  9.19921875 9.19921875  Z " stroke-width="2" stroke="#003366" fill="none" transform="matrix(1 0 0 1 10 165 )" mask="url(#clip8)" />
    <path d="M 14.6664663461538 13.0348557692308  C 14.8888221153846 13.2572115384615  15 13.5276442307692  15 13.8461538461538  C 15 14.1586538461538  14.8858173076923 14.4290865384615  14.6574519230769 14.6574519230769  C 14.4290865384615 14.8858173076923  14.1586538461538 15  13.8461538461538 15  C 13.5216346153846 15  13.2512019230769 14.8858173076923  13.0348557692308 14.6574519230769  L 9.94290865384615 11.5745192307692  C 8.8671875 12.3197115384615  7.66826923076923 12.6923076923077  6.34615384615385 12.6923076923077  C 5.48677884615385 12.6923076923077  4.66496394230769 12.5255408653846  3.88070913461538 12.1920072115385  C 3.09645432692308 11.8584735576923  2.42037259615385 11.4077524038462  1.85246394230769 10.83984375  C 1.28455528846154 10.2719350961538  0.833834134615385 9.59585336538462  0.500300480769231 8.81159855769231  C 0.166766826923077 8.02734375  0 7.20552884615384  0 6.34615384615385  C 0 5.48677884615384  0.166766826923077 4.66496394230769  0.500300480769231 3.88070913461538  C 0.833834134615385 3.09645432692308  1.28455528846154 2.42037259615385  1.85246394230769 1.85246394230769  C 2.42037259615385 1.28455528846154  3.09645432692308 0.833834134615384  3.88070913461538 0.500300480769231  C 4.66496394230769 0.166766826923077  5.48677884615385 0  6.34615384615385 0  C 7.20552884615385 0  8.02734375 0.166766826923077  8.81159855769231 0.500300480769231  C 9.59585336538462 0.833834134615384  10.2719350961538 1.28455528846154  10.83984375 1.85246394230769  C 11.4077524038462 2.42037259615385  11.8584735576923 3.09645432692308  12.1920072115385 3.88070913461538  C 12.5255408653846 4.66496394230769  12.6923076923077 5.48677884615384  12.6923076923077 6.34615384615385  C 12.6923076923077 7.66826923076923  12.3197115384615 8.8671875  11.5745192307692 9.94290865384615  L 14.6664663461538 13.0348557692308  Z " stroke-width="2" stroke="#003366" fill="none" transform="matrix(1 0 0 1 10 165 )" mask="url(#clip8)" />
  </g>
</svg>